<svg id="Layer_1" data-name="Layer 1" xmlns="http://www.w3.org/2000/svg" viewBox="0 0 833 562.89"><title>content</title><path d="M823,610q0,302.25.09,604.5c0,3.75-.84,4.59-4.59,4.59q-406.5-.15-813,0c-3.75,0-4.59-.84-4.59-4.59Q1.06,610,.91,5.5C.91,1.75,1.75.91,5.5.91q406.5.15,813,0c3.75,0,4.6.84,4.59,4.59Q822.94,307.75,823,610Z" style="fill:#fefefe"/><path d="M755.26,397.18c-4.66-9.79-12.29-16.05-19-23-3.91-4.06-7.61-8.32-11.46-12.43-3.44-3.69-1.1-12,4-16.63,6.33-5.77,10.36-13.33,15.52-20,3.43-4.43,10.68-5,13.54-10.79,7.28,1.52,13.38-3.81,20.46-3.5,1.83.08,3.66-.14,5.49-.1,2.58.06,2.58.11,1.72,2.81-.39,1.21.53,1.82,1.22,2.45,4.87,4.47,9.53,9.27,16,11.39,1.71.56,2.54,1,1.78,3.11-2.24,6.16.18,12.71,6.4,16.12,2.56,1.41,2.72,2.55,1.36,4.55-2.33,3.42-1.75,6.27.89,9.4,1.75,2.07,2.81,4.75.89,7.69-2.14,3.3-1.28,7.12-1,10.7.17,2.57,2.9,2.48,4.69,2.9,2.37.57,3.56,1.79,3.36,4.12s-2.3,2-3.81,2.23q-27.62,3.38-55.24,6.65c-.49.06-1.2.27-1.45,0C757.72,392.14,756.45,394.48,755.26,397.18Z" style="fill:#020202"/><path d="M720.1,190.59c-3.5-1.18-4.09-3-4.09-5.67,0-6.09.06-12.21-1.71-18.17-.7-2.35.89-2.88,2.78-2.93,5-.12,9.81-1.65,14.71-2.51,3.07-.54,4.22-2.21,3.91-5.2-.47-4.62-.66-9.27-1.38-13.85-.42-2.67.68-3.95,2.78-3,7.81,3.54,15-.34,22.35-1.58,2.17-.36,4.31-1.48,5.94.44s.16,4-.57,6A89.67,89.67,0,0,0,760.57,159c-.46,2.55.24,3.14,2.68,3.12,8.17-.05,8.82-.63,9.45-9,.39-5.12,1.73-10.16,1.41-15.35-.12-2.06.66-2.68,2.67-2.16,4.61,1.2,8.85-.3,13.07-1.92,7-2.68,10.07-.74,13.3,6.2,7.84,16.87,6.61,33.83,1.5,51a13.52,13.52,0,0,0-.59,6.82,4.05,4.05,0,0,1-1.1,4.11c-1,.9-2.16.39-3.13-.36-1.46-1.13-1.73-2.38-1.27-4.32,2-8.36,4-16.73,5.43-25.2,1.85-10.92.06-21.45-4.56-31.56-1.49-3.27-3.31-4.13-6.63-2.69-3.79,1.64-7.65,3.3-11.95,3.09-2.75-.13-2.89,2-2.88,3.74.09,16.71-4,32.92-6,49.38a14.74,14.74,0,0,0,0,4c.32,2,1,4.45-1.93,4.48-2.68,0-3.26-2.28-2.93-4.72.91-6.54,1.76-13.09,2.66-19.64.43-3.12.91-6.25,1.42-9.36.35-2.18-.32-2.83-2.67-2.73-8.27.37-11.77,5.12-9.72,13.36.44,1.76,1.52,1.13,2.58,1.38,1.84.44,4.44,1.11,3.59,3.65-.8,2.39-2.59.4-4.07.1-3.71-.75-2.54,2.3-2.8,4.09-.23,1.55,1.74,4.16-1.4,4.23-2.49.05-3.28-2-3.18-4.59.32-8,1.23-16,1.32-24.09,0-4.85,2-10.52,3.48-15.74,1.63-5.79,1.25-6.12-4.49-5-3.75.75-7.45,1.75-11.29,1.59-2.83-.12-3.71,1.5-3.22,3.74,1.9,8.69.62,17.1-1,25.71-1.07,5.58-1.4,11.56.59,17.28.33.94,1.14,2.52-.3,3.1-1.7.68-2.91-.7-3.54-2.05-.95-2-.57-5.36-4.61-2.77-1.24.79-2.94-1-3.36-2.88-.24-1.09.54-2.44-.65-3.25s-1.89-1.88-1.14-3.3c.38-.71,1.14-.43,1.79-.23,1.4.43,3.1.52,3.17,2.55,0,1.39-.71,3.36,1.82,3.09s1.16-2.38,1.29-3.61c.46-4.29.32-8.67,1-12.92s-.78-4.66-4.14-3.45a15.56,15.56,0,0,1-1.92.53c-10.2,2.39-10.22,2.52-8.85,13.27C719.9,183.1,719.88,186.59,720.1,190.59Z" style="fill:#020202"/><path d="M751.88,503c.8,8.47-3.82,14.73-8.68,20.8-6.83,8.52-13,17.6-20.35,25.67-1.93,2.1-3.34,5.83-7,3.77-3.36-1.87-6.17-4.83-5.71-9.17s1.38-8.51,2.12-12.76a49.43,49.43,0,0,1,.93-4.88c2.85-10.48-.9-17.7-10.56-22.35A13.85,13.85,0,0,1,694.55,493c-.48-3.91-2.14-5.56-6.12-5a8.44,8.44,0,0,1-4.88-.69c-4.37-2.13-5.29-5.78-1.6-8.95,3.31-2.84,4.52-5.9,4.49-10.24-.08-9.78,7.4-15.75,18.29-19.65,11.3-4.05,30.51,2.34,34.11,17.53.93,3.93,2.81,7.9,8.46,6.76a8.62,8.62,0,0,1,4.39.72c3.68,1.38,4.35,4.77,1.51,7.44a22.6,22.6,0,0,1-3.25,2.29c-5.94,3.82-6,3.81-2.36,10C749.4,496.26,753.5,498.39,751.88,503Z" style="fill:#030303"/><path d="M79.18,205.62c-.65,3.48-1.17,6-1.59,8.58-.35,2.14.49,5.08-3.45,4.47-.74-.11-1.14.43-1,1.27.2,1.41.23,2.67-1.77,2.79s-2.48-1.36-2.9-2.79c-1.38-4.6-2.78-9.21-3.17-14-.22-2.79-.89-4-4.26-3.61-4.4.57-8,1-7.94,6.79,0,2.56-1,5.13-1.55,7.7-.31,1.49-.56,3.19-2.59,3-1.75-.19-2.46-1.78-2.59-3.27a36.05,36.05,0,0,1,.36-9.44,227.6,227.6,0,0,1,7.78-30.31c1.1-3.45-.73-7.65,3.23-10.47,3.43-2.44,5.25-2.37,6,1.77a175.4,175.4,0,0,1,2.9,20.6c.3,4.65,2.11,9,2,13.66,0,1,.16,2.38,1.54,1.81,1.72-.71,3.54,1.56,5.35-.95,3.63-5,6.06-4.39,8.94,1.5.91,1.85.64,5.15,3,5.27s2.47-3.18,3.49-4.95c1.63-2.82,2.78-5.54,7-4.92,2.5.36,3.31-1.6,3.16-4-.43-6.79-.69-13.6-1.22-20.38-.11-1.34-1-2.86.83-3.23a2.82,2.82,0,0,1,3.62,2.41,43.22,43.22,0,0,1,.54,5.43c.33,12.8.73,25.59,2.76,38.25.27,1.68.61,3.18-1.17,3.54s-3.08-.78-3.39-2.8c-.23-1.51.72-3.77-1.31-4.3-1.75-.45-1.93,1.95-3,2.95-3.62,3.57-6.5,3-10.85.21C83.38,215.23,82.8,210,79.18,205.62Z" style="fill:#020202"/><path d="M431.69,89.94c-.43-6.94,1.78-13.48-.1-20a2.73,2.73,0,0,1,1.1-3c1.36-1.17,2.36-.29,3.53.42,3.35,2,4.81,5.49,6.12,8.81s3.12,5.54,6.6,6.76c.84-3.75.24-7.3-.27-10.86-.18-1.26-1-2.76.7-3.51,1.45-.65,2.69.46,3.5,1.37,3.07,3.48,5.87,7.2,9,10.68,1,1.16,2.07,3.23,3.89,2.63,2-.69.92-2.88.95-4.39.09-4.83-.08-9.67,0-14.49,0-1.18,0-3,1.67-3.13,2-.14,2.15,1.39,2.19,3.08.05,2.42.44,4.83.77,8,7.51-4.26,14.55-8.15,21.47-12.25,1.9-1.12,3.86-2,5,0s-1.3,2.58-2.58,3.2c-6.28,3-11.47,6.06-8.9,14.9,1.2,4.13.12,9,3.22,12.82-5.48.63-7.57-5.11-7.28-19.44-3.62.12-5.83,5.36-10.27,2.81-.92-.53-.92,1.4-.89,2.29.07,3.16.23,6.32.39,9.47.07,1.3.69,2.77-.95,3.5-1.35.61-2.53,0-3.68-.8-4.64-3.27-8-7.9-12.72-12-1.09,4.73-.48,9.13-.41,13.43.06,3.17-1.35,4.6-4,5.26s-3.78-1.25-4.59-3.41c-.57-1.54-1.27-3-1.94-4.53s-1.34-2.72-3.31-2.2c-1.61.42-2.67,1.21-2.7,3.05a33.29,33.29,0,0,1-.37,4c-.21,1.4-1.53,2.35-2.44,1.7-3.79-2.72-8.74-1.65-12.55-4.34-4.67-3.29-5.32-6.1-1.88-10.42a12.7,12.7,0,0,0,1.71-2.45c.94-2.09,3.85-4.84,1.27-6.32-2-1.14-4.05,2.28-5.09,4.45-3,6.32-3.05,13.18-3.2,20,0,1.72.77,4.11-2.1,4.12-2.28,0-2.84-1.81-2.86-3.87-.08-6.65,1.72-13.16,1.25-19.87-.16-2.26,10-9.77,12.31-9.66a5.55,5.55,0,0,1,5.17,6.49A21.06,21.06,0,0,1,425,79.77c-3.76,5.57-3.16,7.09,3.08,9.18C429.12,89.31,430.23,89.54,431.69,89.94Z" style="fill:#020202"/><path d="M702.93,113.81Q627.5,111,552.06,112.64c-37.39.86-74.74,3.21-112.11,4.83-8.15.36-16.31.5-24.46.64a12.81,12.81,0,0,1-4.91-.7c-1.48-.61-3.22-1.92-2.7-3.74.78-2.72,2.35-.14,3.56-.12,4.83.06,9.65.41,14.47.33,15.3-.28,30.61-.56,45.9-1.13,15.91-.6,31.79-1.68,47.7-2.3,11.72-.45,23.47-.13,35.17-.8,17.11-1,34.21-.75,51.31-.8,20.33-.06,40.68-.49,61,.15s40.82.73,61.23.22c2,0,3.26.63,3.38,2.7.14,2.52-1.81,1.87-3.17,1.87C719.92,113.83,711.42,113.81,702.93,113.81Z" style="fill:#010101"/><path d="M230,257c-6.31,3.13-7.72,9.12-8.6,15.23a75.44,75.44,0,0,0-.62,11.45c0,4.23-1,8.38,4.4,11.4,3.12,1.74,5.34,6.43,3.73,11.37a12.33,12.33,0,0,0,.41,7.86c.34.91.39,2.06,1.64,2.18s1.7-.84,2.21-1.7A20.62,20.62,0,0,0,236,300c-.29-1.51-.82-3.34,1.24-3.55,1.74-.18,3.72.39,3.63,3-.06,2-.34,4.08,2.49,4.64,3.09.61,3.28-2,4.49-3.64,1.46-2,2.16-5.18,5.73-4.56,3.79.66,3.59,4,4,6.6.76,4.4,1.14,8.87,1.6,13.31.19,1.83.4,4-2.24,4.13-2.44.12-2.15-2-2.36-3.61-.57-4.33-1.1-8.68-1.75-13.83-3.91,4.13-4.07,8.74-5.26,12.89-.48,1.65.3,4.15-2.39,4.08-2.2-.06-3.45-1.81-3.82-4-.13-.77-.13-1.57-.24-2.89-4.14,2.55-3.94,9.52-10,8.65-5.42-.77-6.12-5.72-8.31-11.16a41,41,0,0,0,.59,16.43c.35,1.63,1.58,3.31-.82,4.08-2.24.72-3.56-.92-4.07-2.71a34.22,34.22,0,0,1-1.2-7.32c-.4-7-.73-13.93-.88-20.89-.07-3.33-1.69-3.85-4.39-3.1-2.43.67-6,2.66-6.89-.19-.64-2,3.75-2.34,5.91-2.72,3.93-.69,5-2.55,4.92-6.38a84.66,84.66,0,0,1,2.18-22.7c2.11-8.47,8.71-12.2,16.83-9.64C234.42,258.24,231.28,255.33,230,257Z" style="fill:#030303"/><path d="M71.68,76.67c4.9-7.25,9.53-14.31,10.57-22.78.37-3,1.61-3.77,4.07-3.53,3.09.31,3.44,2.44,3.2,5.07C89,61.55,88.36,67.67,88.09,73.8c-.51,11.74-1.16,23.51,3.47,34.81.56,1.38,1.46,4.51-1.56,4.81-2.23.23-3.31-1.5-3.87-4.1-3-13.83-2.79-27.86-2.71-43.43A101.11,101.11,0,0,0,74.81,83.4c-.75,2-.71,4.87-4.09,4.5-3.59-.39-2.36-3.18-2.79-5.32-1.51-7.68-1.68-15.5-2.72-23.23a39.67,39.67,0,0,0-1.32-4.49,298.59,298.59,0,0,0-8,35.91c-1,5.72-1.6,11.48-2.38,17.23-.26,1.94.79,5-2.73,4.54-3.36-.47-2.5-3.41-2.12-5.62,1.86-10.58,3.74-21.17,5.79-31.73,1.7-8.8,2.74-17.69,3.88-26.57.26-2-.16-4.71,2.61-5.35S65,45,66.3,46.82c2.54,3.65,2.91,8,3.43,12.29C70.46,65,71,70.82,71.68,76.67Z" style="fill:#030303"/><path d="M359.13,302.64c2-3.05,3.65-5.92,5.68-8.47,2.65-3.32,5.52-3,7.07,1,1.3,3.33,1.9,6.94,2.86,10.42.33,1.21.51,2.78,2.11,2.88s1.92-1.44,2.55-2.61c2.49-4.6,3.31-9.68,4.34-14.7.27-1.34-.51-3.51,1.79-3.36s2.64,2.2,2.27,4.15a206.11,206.11,0,0,0-2.88,41.73c0,1.18.72,3.05-1.32,3.13s-2.71-1.48-2.67-3.42c.11-4.83.21-9.66.2-14.49,0-2.41,1.47-5.65-3.74-4.72-2.56.46-4.36-2.67-5.47-5.16-.67-1.5-1-3.15-1.68-4.63-.88-1.89-.16-5.43-2.3-5.53-2.63-.14-3,3.44-4.15,5.49-.82,1.42-1.87,2.91-2.05,4.45-.45,3.9-1.36,6.27-5.82,3.6-1.08-.64-2,.19-2.9,1.23-2.41,2.95-5.38,4.28-9.23,2.59-4.05-1.77-6.42-4.62-6.38-9.18,0-.83,0-1.67.11-2.49a3.07,3.07,0,0,0-1.66-3.34c-1.81-.65-2.1,1.35-2.51,2.4-1.46,3.67-2.75,7.42-3.93,11.2-.36,1.14-.46,2.71-1.7,2.66a4.33,4.33,0,0,1-3.28-1.86c-2-4.37-4.19-8.7-4.78-13.55-.1-.88-.6-2.16.55-2.67,1.33-.59,2.16.53,2.83,1.47a4.2,4.2,0,0,1,.66,1.84c.26,1.88.19,4.7,2.17,4.78s2-2.92,2.82-4.65c.67-1.51,1.41-3,2.15-4.46,2.32-4.62,3.5-4.93,7.23-1.47,1.2,1.11,1.8,1.48,3.22.28,2.38-2,3.85-6.53,7.83-4.9a15.77,15.77,0,0,1,8.94,9.37C358.15,301.92,358.5,302.08,359.13,302.64Z" style="fill:#030303"/><path d="M499.91,388.37c10-6,15.56-4.05,20.25,6,.39.82.36,2.2,1.53,2.27a2.07,2.07,0,0,0,2-1.87c.53-4.32,3.72-3.26,6-2.62a12.83,12.83,0,0,0,7.19.31c2.46-.66,5.33-.87,6,3.08.29,1.8,2.45,2.08,3.87,2.83,3.16,1.65,5.7,3.87,5.22,7.67a7.15,7.15,0,0,1-5,6.22,7.42,7.42,0,0,1-8.63-3.4c-2.37-4-4-4-6.89-.51-3,3.68-7,3.93-10.65,1.17-2.33-1.78-3.8-1.29-5.59.27-.38.33-.74.68-1.14,1-3.61,2.63-7.39,4.67-12,2.53s-5.82-6.82-6-10.62c-.5-11.77-.93-23.61.75-35.37.18-1.29-.29-2.69-.06-4s-1.69-3.41,1.08-3.39c1.73,0,3.51.84,3.32,3.42-.39,5.31-.58,10.64-.86,16C500.22,382.12,500.08,384.91,499.91,388.37Z" style="fill:#020202"/><path d="M327.64,396.65c2.17-.1,1.79-1.68,2.3-2.6a3,3,0,0,1,3.31-1.69c1.66.22,2.82.87,2.76,2.82a3.87,3.87,0,0,0,.49,1.39c.75,1.72-.87,4.89,1.28,5.17,2.71.34,2.61-3.27,3.79-5.08s1.72-4.42,4.2-5.29c1.79-.64,1.29-2.08,1.37-3.33a114.89,114.89,0,0,0-.32-16.9c-.1-1.28-1-3.38,1.17-3.75s3.46,1.36,3.52,3.33c.27,9.12,2.3,18.11,1.81,27.27-.17,3.14-.66,6.31,1.43,9.72-4.32-.66-5.62,2.54-7.65,4.76-1.78,1.94-3.28,4.15-6.64,3.25-3.81-1-6.65-2.71-7.34-6.91-.25-1.55.29-3.42-1.59-4.48-1.72.58-1.84,2.39-2.13,3.59-.94,4-1.28,8.31-7,4.26-.4-.29-1.29,0-1.91.14-9.05,2.47-16.1-3.59-12.64-12,2.68-6.58-.37-9.72-3.67-13.77-.72-.88-3.3-1.74-1.16-3.34,1.43-1.08,3.17-.22,4.33,1.2a12.08,12.08,0,0,1,1,1.72c1.38,2.42,2.32,5.74,6,2,1-1,2.91-.67,4.07.61,1.76,1.95,1.47,4.35,1.19,6.66-.17,1.41-1.06,2.63-2.66,2.3-2.48-.52-3.79.33-4.38,2.74-.74,3-1.14,6,1,8.53,1.84,2.14,3.67.65,5.21-.62,3.24-2.68,3.84-6.4,3.79-10.34,0-1.83.13-3.67.2-5.5.05-1.58.19-3.21,2.39-2.88,1.67.25,2.63,1.16,2.3,3.13C327.23,394,326.77,395.34,327.64,396.65Z" style="fill:#030303"/><path d="M564.6,499.88c2.24-.2,2.75-2.11,3.67-3.29,1.71-2.19,2.77-3.67,6.36-2.71,2.74.73,6.19-1.37,9.36-2,5-1,2.66-5,3.12-7.66a67.4,67.4,0,0,0,.53-9.44c0-.89-1-2,.32-2.59a2.84,2.84,0,0,1,3.19.73c1.55,1.36,1.77,3.12,1.61,5-.25,2.82,0,5.77-.78,8.43-1.59,5.56,1.94,6.57,5.78,6.46,4.9-.14,8.83,1.23,11.67,5.18,1.54,2.15,2.83,1.13,3-.45.56-5,2.77-3.35,5.68-2.05,8,3.57,9.2,8.92,3.25,15.24-3.39,3.61-6,3.87-9.63.24-1.83-1.83-2.75-1.52-4.36,0-2.46,2.33-5.09,4.53-8.66,1.62s-2.67-6-.84-9.3a5.21,5.21,0,0,0,.32-.94c.53-1.7,2.95-3.41,1.83-4.79-1.66-2.07-4.73-2.14-7.36-2.44-2.22-.25-2.06,1.55-2.39,3-1.23,5.37-1.46,10.84-1.82,16.3-.09,1.31.41,3.51-1.83,3.4-2-.1-3-1.45-2.73-3.81.67-5.08,1.13-10.19,1.58-15.29.09-1,.94-2.55-.8-2.91-1.31-.27-2.85.09-3.16,1.71-.72,3.82-2.73,2.84-4.35,1-2.22-2.5-3.64-1.59-5,.65-2.1,3.56-4.47,7-5.49,11.11-.38,1.51-.56,3.13-2.4,3.32a3.29,3.29,0,0,1-3.31-2.57c-1.19-5.47-2-11-2.92-16.53-.13-.83.53-1.16,1.26-1.11a4.78,4.78,0,0,1,3.88,1.92C564,496.64,564.16,498.34,564.6,499.88Z" style="fill:#030303"/><path d="M77,417.08c2-2,2.44-5.12,5.32-6.78,2-1.16.48-4,.5-6.08,0-1.13-.69-2.29-.59-3.4.14-1.59-2.45-3.81.32-4.64s4.25,1.1,4.58,3.86c0,.39.48.74,1,1.48,2-2,1.58-6.41,5.82-5.47,3.42.76,3.11,4.31,5.14,6.91,1.33-2.59,2.5-4.82,3.61-7.08.77-1.57,1-3.46,3.6-3.23s3.29,2.06,3.7,4a50.65,50.65,0,0,1,1,12.35,25.66,25.66,0,0,0,.48,3.32c2.58-4.28,4.63-7.53,6.52-10.87,1.36-2.4,3.23-4,6-3.53,3,.54,2.62,3.38,3,5.59.59,3.42,1.26,6.83,1.69,10.27.13,1.06.57,3.58-1.24,2.81-3.33-1.42-5.6.13-8.4,1.13-3.35,1.21-4.72-2.13-6.38-4-1.47,0-1.35.88-1.45,1.72-.13,1.16-.31,2.35-2,2.19-1.54-.13-1.77-1.2-2-2.37-.94-4.13.13-8.52-1.61-13.31-2.79,3.89-3.87,7.79-4.81,11.69-.39,1.61-.1,3.72-2.42,3.56s-3.37-1.73-3.44-4.09.25-5-1.66-7.44c-2.45,3.48-3,7.34-3.47,11.11-.3,2.33-1.48,4.08-3.23,2.34-3.13-3.09-5.17-1.57-7.7.39-.69.53-1.89.39-2.86.55C74.87,418.58,75.82,417.79,77,417.08Z" style="fill:#020202"/><path d="M230.46,96c-1.88,2.37-.21,7.41-3.91,6.77s-.92-4.78-1.05-7.27c-.17-3.21.53-6.49,0-11.14a36.8,36.8,0,0,0-7.41,15.19c-.36,1.54.39,4.18-2.52,3.94-2.71-.21-3.31-2-3.15-4.6a87.88,87.88,0,0,0-.39-9c-3.51,4.61-4.07,8.67-4.81,12.66-.31,1.66-.27,3.48-2.77,3.2-2.29-.26-3.05-1.66-2.91-3.8.23-3.48.51-7,.61-10.45.1-3.21-1-7.27,4.78-5.65.44.12,1.22-.44,1.63-.88,3-3.16,5.33-1.36,6.62,1.39,1.66,3.53,2.11,2,3.55-.08,1.85-2.73,3-7.07,7.43-6.25,4.1.77,4,4.7,4.41,8,.07.56.42,1.44.81,1.55a1.76,1.76,0,0,0,2-1.13c1.48-3,3.86-5.38,5.89-8,1.38-1.78,2.92-2.7,5.13-1.77s2.81,2.82,2.66,4.9c-.35,5-3.48,8-7.66,10.21-1.3.68-3.6.48-3.07,3.06a4.48,4.48,0,0,0,4.55,3.84c4.35.23,8-1.54,11.45-4,1.13-.82,2.52-3,3.84-1.32,1.08,1.37-.67,3-1.88,4.13C247.05,106.27,236.33,104.81,230.46,96Z" style="fill:#020202"/><path d="M661.43,179.67c1.38-.41,1.38-1.71,1.84-2.74,1-2.32,2.23-4.64,5.24-4.57,2.78.07,4.54,1.92,5.73,4.21,1.41,2.69.55,5.1-1.32,7.25a8.13,8.13,0,0,1-1.47,1.34c-1,.67-2.26,1.31-1.34,2.65.58.83,1.81.35,2.8.3,1.31-.06,3.16-2.89,3.86.19.64,2.85-1.83,3.57-4.08,3.83-3.39.4-5.63-1.65-7.56-4-1.55-1.91-2.78-3-3.92.26s-3.07,4.45-6.51,3.2c-2.68-1-4.13-.35-3.4,3.06a91.22,91.22,0,0,1,1.06,9.38c.17,1.53.33,3.14-1.4,3.85-2.11.87-3-.9-3.88-2.24-2.43-3.87-2.36-8.2-1.89-12.54.14-1.31.48-2.6.62-3.91s.25-3-1.22-3.47c-1.31-.45-1.87,1.09-2.51,2a11,11,0,0,1-7.3,4.81c-3.92.7-8.26-3.45-7.71-7.67a20.35,20.35,0,0,1,5.35-11.5c2.49-2.61,5.12-1.56,6.51,1.3,1.58,3.28,4.59,4,7.43,5.11,1.06.43,1.77-.2,2.5-1C655.05,171.68,656.53,171.81,661.43,179.67Z" style="fill:#020202"/><path d="M153.63,283.3c.2,3.65.39,7.3.62,10.95.15,2.32,1,3.73,3.76,3.18,5.77-1.15,11,1.73,16.49,2.7,4.22.75,5.56,5.3,5.61,9.5a11.15,11.15,0,0,1-1.38,5.2c-2.76,5.42-5.48,7.33-9.35,6.09-4.18-1.32-6-5.58-4.79-11.1.21-1,.58-1.9.74-2.87,1.13-6.74-.22-8-6.91-6.85-2.46.42-3.29,1.28-2.91,4,1.12,7.85,1.87,15.76,2.84,23.64.21,1.65,2.06,3.94-.8,4.43-2.6.45-4.15-1.43-4.37-4.24-.56-6.95-1.28-13.89-1.82-20.84-.22-2.88.26-6.11-4.47-4.45-1,.36-2-.58-2.23-1.54-.41-1.73,1.13-1.91,2.2-1.87,3.27.13,3.33-1.8,3.06-4.21a236.41,236.41,0,0,1-.94-25.39c0-4.09,2.14-6,5.52-6.34,7.61-.8,14.55.92,19.76,7.05,1.09,1.26,3.37,2.84,1.09,4.45-2,1.4-2.64-1.13-3.3-2.42a10.83,10.83,0,0,0-5.48-4.79c-8.53-4.06-13-1.46-13.23,7.79-.06,2.65.23,5.31.36,8Z" style="fill:#050505"/><path d="M68,289.15c5.87,2.44,11.63,5,12.59,12.42.29,2.23,1.74.88,2.62.92,2.77.13,4.31.75,3.64,4.19a33.41,33.41,0,0,0-.12,8.94c.09,1.16.56,2.81,2.13,3.07,1.37.23,1.84-1.17,2.58-2a20.52,20.52,0,0,0,4.65-9.24c.74-3.73,2.36-4.83,5.73-4.19,3.09.57,4.31-.54,3.92-3.73-.55-4.44-.77-8.91-1.35-13.34-.2-1.51-2-3.3.76-3.91a3.35,3.35,0,0,1,4.37,3,83.94,83.94,0,0,1,1,11.39c0,3.71.64,5.88,5,4.29a2.4,2.4,0,0,1,3,1.12c-.12.3-.18.82-.35.86-6.3,1.25-7.82,5.31-7.33,11.23.16,2,.79,6.06-2.47,6-3.73-.07-1.3-4-2.1-6.05-.85-2.22,2-5.74-1.83-6.79-4.74-1.31-3.7,3.36-5,5.57-1.1,1.84-2.1,3.75-3.16,5.62-1.58,2.77-3.82,4.92-7.14,4.4-3.86-.61-6.92-2.85-7.52-7-.54-3.69-.42-7.48-.64-12.33a60.76,60.76,0,0,1-21,18.1c-2.84,1.54-5.9,3.32-9.42,1.57-.93-.46-1.89-.92-1.37-2.19.37-.92,1.24-.8,2.11-.81,7.75-.06,20.82-8.87,23.49-16.06,1.34-3.6,1.22-7.11-2.18-9.92-1.58-1.3-3.74-1.89-4.75-3.87C67.39,289.92,67.44,289.51,68,289.15Z" style="fill:#080808"/><path d="M213.1,518c-3.95,3.24-5.66,8.3-12.87,5.26-5.9-2.48-7.2-6.27-8.86-11.43-3.84,3.25-4.07,7.77-5.83,11.49-.51,1.08.14,2.88-1.94,2.75a3,3,0,0,1-3.09-2.7c-.75-5.23-1.88-10.47-.67-15.77.26-1.15.17-3,2.18-2.64,1.5.3,1.87,1.82,1.95,3.11a10.82,10.82,0,0,1-.64,2.89c-.18.77-.67,1.69.43,2.12a1.66,1.66,0,0,0,2.1-.84c.69-1.15,1.31-2.32,2-3.44.89-1.37,1.64-3,3.77-2.67s2.94,2.07,3.49,3.75c.71,2.19,1,4.49,1.54,6.74.21.93.07,2.1,1.39,2.35s2.06-.67,2.58-1.8c1.71-3.65,4.52-6.49,7-9.6,2.61-3.29,4.53-2.54,6.42.52a9,9,0,0,1,1.54,3c1.63,11.35,6.73,21.77,8.66,33a44,44,0,0,1,.9,10.86c-.29,3.79-2.39,5.13-5.94,4.9-7-.47-13.23-3.48-20.69-5.45,3.08-2.37,5.39-1.44,7.62-.77a75.14,75.14,0,0,0,10.62,2.6c3.78.57,5-1.62,4.83-4.49C220.9,540.19,217.12,529.33,213.1,518Z" style="fill:#040404"/><path d="M637.75,77.61c-7.22.13-13-1.46-19.08-6.58,1.29,4.44,2.23,7.54,3.05,10.67.21.8,1,2.71-.05,2.38-3.34-1.06-7.55,2.25-10.18-2.11-1.19-2-2.73-3.73-4-5.66s-2.76-3.21-5.3-2.26c-2.22.83-4.5,1.47-4.08,4.66.19,1.41-.2,2.89-2,2.72s-3.25-1.29-3-3.29c.8-6.92,1.69-13.84,2.73-20.73.27-1.82,1.29-2.4,3.16-1,3,2.19,4.29,5.46,5.57,8.6s2.94,3.71,6,3.17c3.3-.57,2.46-2.54,2.47-4.67,0-4.47,1.72-8.17,6.06-10,3.85-1.63,7.25-.14,10,2.5,3.5,3.33,3.1,8.09-.7,11.8-4,3.94-3.93,3.69,1.48,5.82C632.34,74.54,635.73,73.53,637.75,77.61Z" style="fill:#040404"/><path d="M616.94,191.31c-2.79,5.56-11.15,5.8-15.62.4a13.72,13.72,0,0,1-3.11-7.68c-.1-1.26.45-3-1.52-3.08-1.67-.09-2,1.56-2.43,2.76a47.4,47.4,0,0,0-2.11,6.07c-.36,1.46-.14,3.1-2.25,3.25a3.68,3.68,0,0,1-3.59-2.26C585.1,188.44,584,186,583,183.6c-.88-2.15-1.69-4-3.79-.95a8.75,8.75,0,0,1-3.6,2.57c-1,.5-3.17,0-2.54,2.17a2.84,2.84,0,0,0,3.12,2c.83-.05,1.67,0,2.5,0s1.8.2,2,1.12c.24,1.24-.91,1.84-1.76,2.08a8.21,8.21,0,0,1-7.56-1.47c-6.7-5.61-6.28-12.91.81-18.33a3.83,3.83,0,0,1,4.27-.22c3.47,2.4,6.68,5.18,9.93,7.88.82.69.68,2.42,2.21,2.38s1.29-1.72,1.82-2.64a23,23,0,0,0,1.19-3.26c1.75-4.66,3.66-5.28,6.9-1.66,1.58,1.76,2.48,1.91,3.87.33,2.06-2.37,4.55-2.61,7.2-1.37,2.24,1,2.93,3.09,2.61,5.43-.43,3.11-1.76,5.6-4.78,7.06-1.14.55-3.53-.88-3.35,1.72.16,2.4,2.21,3.24,4.21,3.52a15.77,15.77,0,0,0,4.4-.4C614.08,191.32,615.46,190.39,616.94,191.31Z" style="fill:#030303"/><path d="M368.19,94.93c5.5,1,10.66.41,14.62-4,2.82-3.1,1.66-6-2.51-6.6a17.47,17.47,0,0,0-8.79,1.22c-1.73.66-3.45.33-4.32-1.4-1.06-2.1,1.06-2.31,2.17-3.13,9.48-7,18.33-14.77,28.22-21.22,2.15-1.41,3.92-2.31,6.27-.65,2.58,1.83,1,4,.31,5.78-4.36,11.85-8.22,23.79-8.41,36.59-.05,3.16,0,6.16,2.55,8.78,1,1.05,2.89,3.71.26,5s-3.65-1-4.63-3.07c-3.64-7.89-2.26-16-.94-24s3.67-15.73,6.1-23.65c-7.89,3.7-14.23,9.19-20.89,15.1,2.38,1.49,4.72,1.73,6.54,3.2,4.63,3.71,4.84,7.7.23,11.48s-13.59,5.78-19.92,1.45C365.51,93.65,367,94.64,368.19,94.93Z" style="fill:#050505"/><path d="M68,289.15l-.14,1.24c-7.2-1.34-14.34-1.73-21.58.18-2.5.66-3.57,1.26-3.54,4,.08,6-.46,11.92.36,17.88.2,1.44,1.34,3.8-.85,4.32-2.49.59-2.77-1.92-3-3.65-1.09-8.74-1.78-17.56-1-26.3.56-5.85-.08-11.56-.2-17.32,0-1.42-1-3.16,1-3.89,6.91-2.54,13.18-7.07,21.08-6.5,5.83.42,7.23,3,4.16,8-3.86,6.35-9.89,10.67-15,15.87-1,1-2.93,1.88-2.38,3.45.67,1.9,2.63.59,3.95.55C56.78,286.86,62.57,286.43,68,289.15Z" style="fill:#080808"/><path d="M281,389.8c-5.06,2.39-9.29,2.12-13.25,2.88-4.57.88-5.49,3.18-4.86,7.37a315.68,315.68,0,0,0,6.3,33.11c.35,1.34,2.41,3.19-.81,3.63-2.25.31-3.77-.52-4.18-3.1-1.33-8.47-2.8-16.92-4.19-25.39-.42-2.6-1.4-5.33-1-7.81.62-3.84-5.37-2.52-4.09-5.49,1-2.21,3.23-3.57,3.15-6.69A73.38,73.38,0,0,1,259.84,368c1.81-7.08,4.52-9.87,11.85-10.28,7.75-.43,14.68,1.65,19.8,8a5.83,5.83,0,0,1,1.7,4c0,.8,0,1.83-1,2s-2.1.15-2.38-1.16c-1.66-7.76-7.64-9.26-14.21-9.74-6.27-.45-10,2.38-11.56,9a81.32,81.32,0,0,0-2,16.78c-.05,2.72.72,3.41,3.44,3C270.15,389.09,274.88,388.2,281,389.8Z" style="fill:#060606"/><path d="M460.81,500.38c2.63-2.83,4.82-5.27,7.1-7.61a5.77,5.77,0,0,1,7.27-1.29c2.71,1.35,3.6,3.54,3.31,6.57-.58,5.88-4.87,9.62-10.83,9.14-1.22-.09-2.71-1.19-3.57.38-.57,1-.08,2.27.62,3.28a3.18,3.18,0,0,0,4,1.08c1.85-.66,3.54-1.76,5.38-2.46,1.64-.62,3.13-2,5.12-1.42-2.14,5.58-8.89,9.09-14,7.52-2.66-.82-4.66-3.28-8.15-2.29-1.53.43-2.34-2-2.28-4.18.23-8.51,2.06-16.81,3-25.23q.42-4,.49-7.94c0-1.41-1.65-3.42,1.49-3.41,2.42,0,3.78,1,3.44,3.66-.79,6.08-1.5,12.17-2.33,18.25C460.58,496.18,459.71,497.87,460.81,500.38Z" style="fill:#030303"/><path d="M104.11,138.68c1-7.53,1.93-15.07,3-22.6.32-2.37.52-4.23-2.13-5.84-3.42-2.08-4.26-6.13-5.42-9.74-1-3-1.87-6-2.68-9-.37-1.4-1.94-3.3.73-4,2.06-.55,3.52.51,4.1,2.6.78,2.86,1.53,5.73,2.3,8.59a17.32,17.32,0,0,0,1.12,3.79c.72,1.33.55,3.87,2.67,3.6,1.63-.2,1.35-2.36,1.58-3.77.89-5.56,1.85-11.12,2.58-16.71.26-2,.38-3.69,3-3.14s2.76,2.14,2.21,4.42c-2.35,9.65-3.92,19.45-5.54,29.24-1.54,9.34-2.64,18.69-2,28.19.09,1.4,1,3.7-2,3.46-2.08-.16-3.38-1.18-3.29-3.52.08-1.82,0-3.65,0-5.48Z" style="fill:#070707"/><path d="M462.55,285.49c2-.1,3.1.66,3.61,1.62,1.22,2.31,2.3,2.35,4.61,1.05,4-2.27,9.74,1.54,11.88,7.51,1.84,5.12.3,7.92-5.48,9.19-2.87.63-3.65,1.74-2.9,4.65,1.65,6.4,1.59,13.14,3.7,19.48.31.91.49,2.2-.56,2.66s-2.22-.09-3-1.13c-1-1.27-1.05-2.75-1.32-4.23-1.12-6.36-2.36-12.71-3.45-19.08a8,8,0,0,0-1.72-4c-.59-.67-.18-2.21-1.68-2.05-1.3.13-1.21,1.4-1.66,2.23-2.58,4.78-4.08,4.94-8.12,1.12a15.48,15.48,0,0,1-4.77-9.62c-.17-1.3-1.74-3.2.65-3.65,1.77-.33,3.22,1.36,3.4,3a20.26,20.26,0,0,0,1.49,6.26c1,2.12,2.63,2.44,3.37,0C462,295.71,465.52,291.24,462.55,285.49Z" style="fill:#070707"/><path d="M448.33,192.42c2.8-1.21,6.52,1.41,7.14-1.58.55-2.59-3.36-2.9-5.41-4.05-1.72-1-4.16-1.36-5.16-2.78-3.52-5-4.88-1.61-6.57,1.3-1.08,1.88-2.18,3.71-4.79,3.73-.94,0-2.61-1-2.62,1.06,0,1.76,1.17,2.55,2.91,2.76s2.85-.72,4.28-1c.74-.13,2,0,2.29.45.7,1.08-.38,1.78-1.18,2.33a8.15,8.15,0,0,1-8.86.6c-3.8-1.95-5.38-5.39-5.29-9.41.13-5.17,3.06-9.11,7.14-11.83a5.65,5.65,0,0,1,8.26,1.82c1.94,3.19,3.29,2.28,5.14.26,2.34-2.56,5.1-3.52,8.51-2.22,1,.38,2,.65,2,1.83,0,1.34-1.08,1.39-2.11,1.54a8.77,8.77,0,0,0-2.82.79c-1.28.68-2.84,1.41-2.9,3.09s1.66,1.91,2.76,2.52c2.17,1.2,4.5,2.11,6.64,3.36s4.45,3.05,3.56,5.78c-.82,2.54-3.53,3.33-6.14,3.49C452.2,196.44,450.1,195.16,448.33,192.42Z" style="fill:#070707"/><path d="M355.67,202.12c-3.19-2-3.73-4.82-2.35-8.16a14,14,0,0,0,1.27-3.23c.38-2.89.22-6.16-2.73-7.34-3.2-1.27-5.51.53-6.91,3.84-2.08,4.9-4,9.78-3.89,15.21,0,1.46-.44,2.76-2.08,2.9s-3.72-.64-3.37-2.09c1.71-7.1-2.13-14.06-.35-21.64,3.44,2.52,5.74,1.43,8.8-.77,3.26-2.35,7.69-1.48,11.3.67,1.83,1.1,3.12,3,5.28.23,1-1.26,3.21-1,4.7-.27a3.45,3.45,0,0,1,1.64,4.32c-1.24,4.13-1.88,8.93-7.47,9.7-2.1.28-1.64,1.73-1.63,3a2.41,2.41,0,0,0,2.89,2.62,50.86,50.86,0,0,0,5.28-1.06c1.05-.76,1.74-.63,1.91.77-.73.74-1.47,1.47-2.21,2.2C362.17,205.21,358.92,203.71,355.67,202.12Z" style="fill:#040404"/><path d="M187,406c1.06-2.92,1.56-4,1.81-5.09a2.32,2.32,0,0,1,2.79-2.09c1.43.1,2.42.41,2.94,2,2.07,6.58,1.84,13.73,5,20a1,1,0,0,1-.92,1.46,3.21,3.21,0,0,1-3.41-1.47,53.89,53.89,0,0,1-2.43-6.46c-.29-.89.07-2.24-1.4-2.11-1.21.1-1.22,1.3-1.52,2.25-.65,2,1.29,5.83-2.73,5.65-3.4-.16-3-3.49-3.62-6.09s.28-7.69-2.4-7.71-2.73,4.92-3.68,7.79a22,22,0,0,0-.3,3c-.23,1.31-.47,2.83-2.3,2.62-1.52-.18-3.31-.88-3.26-2.55a122,122,0,0,0-1-18.82,1.29,1.29,0,0,1,.89-1.56c1.16-.31,2.15.3,3.24.72,1.27.5.4,3.11,1.86,2.31C182,396.83,184.77,399.8,187,406Z" style="fill:#040404"/><path d="M488,182.86c.67,3.81.14,7.88,1.81,11.63.43,1,1.65,2,.23,3a2.15,2.15,0,0,1-3.14-.32c-1.78-2.46-4.13-2-6.65-2-5.06,0-8.17-3.59-7.57-8.72.23-2,.13-3.06-2.25-3.17-2.69-.13-2.61,1.57-2.37,3.24.36,2.45,1,4.86,1.49,7.28.28,1.26-.58,1.9-1.44,2.32-1.33.66-1.76-.65-2.12-1.43a25.34,25.34,0,0,1-1.16-3.8c-.75-2.67-.5-6.11-4.95-5.74-.62.05-1.61-1.15-2-2s.58-1.58,1.35-1.72c4.56-.85,3.83-4.23,3.58-7.36-.15-1.82-.66-3.62-.67-5.44,0-1.27-1.72-3.56,1.54-3.51,2.22,0,3.39,1.08,3.42,3.34,0,2.5,0,5,.14,7.49.06,1.74-.54,3.72,2,4.47s4.72,1.77,6.8-.73a7.42,7.42,0,0,1,8.48-2.55C487.14,178.06,489.9,179.05,488,182.86Z" style="fill:#050505"/><path d="M658.27,378.5c4.77,3.53,9,5.29,14,4.76a2.81,2.81,0,0,1,3.17,3.05c-.23,2.42-2,2.37-3.69,2-2.91-.59-4.55,1.25-5.36,3.4s-1.52,4.92.44,7.09,4.4,1.72,6.9,1c1.16-.32,2.42-2.82,3.6-.36,1,2.18-1.24,2.84-2.51,3.54a7.82,7.82,0,0,1-6.71.44c-2.24-.81-4.17-2.32-7-1.89-2,.32-2.84-2-3.07-3.86s-.22-3.89-2-5.58c-2.49,2.22-3.48,5.24-4.86,8-1.86,3.71-3.44,4-5.95.77-2.69-3.48-3.67-7.74-4.89-11.86-.2-.68.22-1.55.36-2.33a6.2,6.2,0,0,1,2.33.6,9.74,9.74,0,0,1,2.19,2.62c.82,1.34.36,3.83,2.22,4.06,2.27.28,2.24-2.48,3.32-3.82a11.67,11.67,0,0,0,2.14-3.89c.53-1.81,1.47-2.56,3.24-2,2,.62,2.38,1.77,1.31,3.73-.86,1.59.1,2.89,1.71,3.53,1.93.76,2-1.12,2.77-2,2.45-2.71,2.8-4.84-1.16-6.43C659.59,382.57,658.74,381.43,658.27,378.5Z" style="fill:#090909"/><path d="M440.44,497.88c7.71-3.61,11.84-1.14,12.45,6.85a44.73,44.73,0,0,1-.1,4.48c-.08,2.53-.21,5.46-2.46,6.71-2.54,1.41-4.57-1-6.52-2.49-1.57-1.17-2.57-2.3-5.11-1s-4.28-.82-4.06-3.8c.61-8.23,1.28-16.46,1.84-24.7.2-3,0-6,.33-9,.14-1.22-2.5-3.46.89-3.71,2.56-.19,4.09,1.15,4,3.91-.19,3.6-.4,7.19-.59,10.79C440.86,489.75,440.67,493.55,440.44,497.88Z" style="fill:#040404"/><path d="M624.83,396.17c0-.66.1-1.32.1-2,0-2.94-1.51-5.83-3.87-6.35s-3.17,2.82-3.8,4.87c-1.12,3.62-2.48,7.25-2,11.17.12,1.12.68,2.52-.94,2.87-1.22.27-2.61.46-3.63-.85-2.76-3.58-3.39-7.79-3.67-12.1-.06-.8.17-1.84,1.4-1.19,3.71,1.95,3.78-1.21,5-3.23,1.57-2.53,1.19-6.94,6.06-6.65a7.07,7.07,0,0,1,4.7,2.43c1.28,1.24,2.31,2.34,4.68,1.58,3.65-1.17,6.14.63,6.32,4.63.14,3.09,3.09,7.88-3.94,7.23-2-.19-1.53,1.62-1.1,2.46,1,2,1.65,4.58,4.76,4.08a4.43,4.43,0,0,0,1.74-.94c.91-.67,1.79-1,2.54.1s.24,2.19-.71,3a5.57,5.57,0,0,1-6.87.62C627,405.38,624.44,401.61,624.83,396.17Z" style="fill:#050505"/><path d="M589.51,290.71a6,6,0,0,0,6.79-1.57c.72-.76,1.49-2.13,2.82-.8,1.13,1.14.19,2.2-.36,3.15-2.48,4.24-7,5.09-11,2.18a15,15,0,0,1-3.35-3.61c-2.28-3.14-4.84-6.14-8.26-1.11-1.27,1.87-5.49.61-4.85,3.61.58,2.73,3.88,1.78,6.11,1.9,1.14.07,2.13.34,2.13,1.51s-1.2,1.5-2.15,1.66c-4.2.72-7.42-1-10-4.2-2.32-2.91-1-5.66.53-8.22a28.75,28.75,0,0,1,4-5c4.16-4.24,5.28-4.08,8.16,1.32,1.18,2.22,2.39,1.84,3.74.44.55-.57.67-1.55,1.21-2.15,2.17-2.42,4.32-6,8.11-3.17s1.82,6.1-.26,9.13C591.82,287.33,590,288.38,589.51,290.71Z" style="fill:#060606"/><path d="M560.39,188.94A23.56,23.56,0,0,1,550.33,194c-3.22.69-6.22-.18-8-2.8s-1.22-5.46.74-7.88c2.4-3,4.87-5.89,7.44-8.71.61-.68,1.89-1.45,2.58-1.25,5.27,1.58,4.66-1.45,4.21-4.86-.49-3.78-.68-7.6-.8-11.41,0-1.23-.94-3.38,1.53-3.38a3.18,3.18,0,0,1,3.43,3.47c.08,5,.15,10,.69,14.95a105.78,105.78,0,0,0,2.78,16.11c.52,1.93,2.75,5-.55,6S561,191.71,560.39,188.94Z" style="fill:#070707"/><path d="M167.58,83.26c-5.27,6.75-7.3,13.91-7.79,21.62-.11,1.72.57,4.09-2.42,3.75-2.29-.26-3.39-1.72-3.18-4.15a91.85,91.85,0,0,0,0-17.39c-.25-2.28,1.14-3.43,2.94-2.56,3.33,1.61,4.26-.54,5.69-2.64s2.72-4.93,6-4.24c3.07.64,3.78,3.55,4.51,6,2.19,7.41.92,15.15,1.89,22.69a1.58,1.58,0,0,1-2,1.69c-1.58-.39-3.12-1-3.06-3.23a90.45,90.45,0,0,0-.06-9.46C169.81,91.45,170.06,87.39,167.58,83.26Z" style="fill:#0a0a0a"/><path d="M578.55,409.91c-7-2.05-10-9.21-15.57-13-.52.49-.88.66-.93.9-.41,2,1.42,5.38-2.31,5.37-3.53,0-2.93-3.05-2.86-5.61.22-8-.07-15.89-2.5-23.56-.34-1.07-.62-2.05.9-2.08,1.8,0,4-.2,4.46,2.14.64,3.07.86,6.23,1.36,9.33.18,1.06-.51,2.57.86,3.12,1.58.62,2.38-.9,3.22-1.8,3.17-3.39,7.05-6.1,9.68-10,1.39-2,3.15-2.57,5-1,2.26,2-.34,2.77-1.29,3.77-3.43,3.61-6.92,7.15-10.45,10.66-2.16,2.15-2.74,4.05-.65,6.87a56.23,56.23,0,0,0,9,9.86C577.93,406.2,580,407.25,578.55,409.91Z" style="fill:#060606"/><path d="M706.49,43.58c-.82,1.33-2.38,1.6-3.7,2.13-8.54,3.44-17.06,6.89-24.77,12a8.63,8.63,0,0,0-3.2,3c-.72,1.43-1.51,3.08,1.36,2.65a2.33,2.33,0,0,1,2.74,1.6c.66,1.73-1.16,1.6-2,2.23-1.86,1.43-2.39,7.65-.81,9.43,1,1.13,2.07.59,3.1,0,2.19-1.15,4.29-2.5,6.57-3.43A2.93,2.93,0,0,1,689.94,75c.64,1.7-.94,2.21-2,2.84-1.29.74-2.67,1.33-4,2.06-7.26,4.06-10.32,2.74-12.43-5.28C670.15,69.47,670.7,64,668.65,59c-.49-1.2.41-1.89,1.32-2.31,10.69-4.94,20.71-11.34,32.21-14.47C704.55,41.59,706.67,42.2,706.49,43.58Z" style="fill:#070707"/><path d="M216,414c-.83,12,.58,23.85,1.56,35.75.14,1.69,1,3.52-1.56,3.64-1.87.08-2.83-1.13-2.95-3.23-.49-9.09-1.13-18.18-1.75-27.27-.2-2.84.4-5.89-4.35-6-2.64-.05-6.32-7.76-5.9-10.77.11-.79,0-1.9,1.2-1.69,1.42.27,3,.52,3.77,2.08.48.92-.44,2.7,1.35,2.76,2,.06,1.51-1.88,1.94-3,.7-1.84,1.09-3.81,1.75-5.67.48-1.32-.54-3.76,2.3-3.5s2.73,2.26,2.67,4.4C215.87,405.65,216,409.81,216,414Z" style="fill:#070707"/><path d="M252.67,502.48c0-2.67,1.31-4,3.67-2.33s3.16.67,3.75-1.47c.38-1.41,1.09-2.43,2.74-2.34a3.3,3.3,0,0,1,2.95,2.33q1.1,2.76,1.93,5.63c.23.8.19,1.66,1.32,1.73s1.37-.7,1.71-1.48c.92-2.11,1.84-4.22,2.79-6.31,1.24-2.72,3-3.15,4.81-.69,3.19,4.39,3.55,9.88,5.38,14.8a1.33,1.33,0,0,1-.61,1.16c-.88.38-1.53-.16-2.12-.82-1.75-1.91-2.2-4.41-3.11-6.71-.28-.73-.33-1.92-1.33-1.78a2.67,2.67,0,0,0-1.69,1.57c-1.06,2.93-2.05,5.91-2.84,8.92-.31,1.15-.26,2.53-1.66,2.69a3.08,3.08,0,0,1-3.48-2.21q-1.28-4-2.39-8.1c-.27-1-.23-2.05-1.65-2-1.16.06-1.06,1.07-1.36,1.78-1,2.27-2.22,4.45-2.42,7-.1,1.41.31,3.47-2,3.15a3.25,3.25,0,0,1-3.17-3.18C253.67,510.05,253.1,506.29,252.67,502.48Z" style="fill:#050505"/><path d="M705.5,60.3c.51,4,1.06,8,1.52,12,.18,1.55.84,3.74-1.61,3.82-1.74.06-2.68-1.42-2.78-3.44-.13-2.8-.91-5.58-1-8.38-.08-3.74-1.84-3.69-4.36-2.29a41.86,41.86,0,0,0-4.6,3c-2,1.54-3.39.53-4.47-1.14-1.28-2,.41-2.63,1.74-3.24,10.19-4.62,20.42-9.13,30.56-13.85,2-.92,2.89,0,3.69,1.23,1.26,2-1,2.18-1.84,2.66a57.81,57.81,0,0,1-6,2.46c-5.93,2.46-6.86,5.33-3.65,11.19,1.59,2.88,3.19,5.75,4.77,8.64.65,1.18,1.38,2.54-.58,3-1.31.35-2.9-.08-3.12-1.62-.82-5.63-5.38-9.28-6.92-14.5Z" style="fill:#070707"/><path d="M645.48,72.39c-.7,1.11-.06,2.19.18,3.28s1.58,2.21-.07,2.94a2.34,2.34,0,0,1-3.27-1.34,43.69,43.69,0,0,1-4.25-18.21c-.05-3.8,4.95-7.81,9.28-8.38,4.66-.62,8,1.54,10.43,5.24,1.15,1.74.35,3.61-.51,5.17a20.4,20.4,0,0,1-2.93,3.35c-1.57,1.77-5.52,2.45-4.53,5.15s4.71,2.5,7.45,2.86c2,.26,4,.23,6,.34,1.25.07,3.06-.6,3.31,1.22.29,2.14-1.95,2.15-3.17,2.3-5,.62-9.89.21-14.41-2.39C647.87,73.3,647.1,72,645.48,72.39Z" style="fill:#080808"/><path d="M163.27,486.68c-1.4,13.4-3.12,27.54-2.3,41.84.07,1.14.31,2.51-1.53,2.38-1.46-.11-2.61-.74-2.45-2.47.42-4.51-.75-4.42-3.91-1.77-2.89,2.43-6.31.81-6.94-3a9.69,9.69,0,0,1,2-7.84c2.72-3.45,4.42-7.78,8.86-9.73,1.5-.65.82-2.36.9-3.61.4-5.79.65-11.6,1.15-17.38.12-1.46.15-3.79,2.63-3.2C163.53,482.38,164.09,484,163.27,486.68Z" style="fill:#080808"/><path d="M294.73,507.88c2.76-2.8,1.59-6.73,3.12-9.74.28-.55,0-1.35.29-1.95.78-2,.21-5.58,3.48-4.93,2.68.54,1.9,3.41,1.77,5.84-.44,8.37-5.51,15.5-5.75,24-.22,8.12-1.1,16.21-.45,24.35.11,1.29.88,3.4-1.31,3.61s-2.54-1.45-2.72-3.36c-.9-9.66.19-19.24.95-28.84.18-2.27.2-4.21-1.63-5.88-3.18-2.89-3.56-7-4.45-10.85-.26-1.12-.87-2.82,1.16-3.2,1.8-.33,2.73.62,3.15,2.36C293,502.1,292.1,505.34,294.73,507.88Z" style="fill:#080808"/><path d="M192.56,103.88c-2.44,2.77-4.91,4.73-8.36,2.71a8.94,8.94,0,0,1-4.68-9.18c.57-5.51,2.95-10.45,5.4-15.33.69-1.36,2.31-2.3,3.26-1.52,2.9,2.43,7.77,3,8.08,8a129.13,129.13,0,0,0,2.12,18.7c.21,1,.42,2-.94,2.4a3.17,3.17,0,0,1-2.78-.71C193.11,107.85,193.67,105.91,192.56,103.88Z" style="fill:#070707"/><path d="M553.08,286a24.23,24.23,0,0,0-2.57,11.81c0,1.26.74,3-1.12,3.27a3.15,3.15,0,0,1-3.7-2.52,103.86,103.86,0,0,0-5.72-19c-.3-.79-.43-1.73.42-2.23a2,2,0,0,1,2.7.48,9.64,9.64,0,0,1,1.73,3.48c.74,3.28,1,6.35,4.36,1.21,1.59-2.45,3.88-.7,5.41.89a23.57,23.57,0,0,1,2.55,3.65c.45.72.9,1.51,1.85,1.33s.88-1.25.94-2a14,14,0,0,1,4.67-10.06c.9-.8,2-1.53,3-.51a2,2,0,0,1,.3,2.72c-4.82,5.32-3.86,12.06-4.69,18.36-.18,1.38.4,3.4-1.78,3.45a3.81,3.81,0,0,1-3.77-2.63C556.38,294.11,554.94,290.63,553.08,286Z" style="fill:#080808"/><path d="M508.34,302.9c.81.11,2.74-1.18,3.05.59.39,2.26-2.15,2.22-3.51,2.52-4,.88-10.61-4.08-12.38-9.05a25.88,25.88,0,0,1-.78-2.87c-.23-1-.63-2.06-1.81-2-1.48.1-1,1.4-1,2.3,0,1.49.15,3,.27,4.46.09,1.1,1.74,2.6-.69,3.05-2.06.39-2.58-1.17-2.79-2.68-.64-4.58-1.19-9.17-1.72-13.76-.39-3.45-.5-6.94-1.09-10.34-.29-1.65-1.53-3.46,1.06-3.81,1.87-.25,2.86,1.52,3.09,3.2.44,3.11.51,6.27,1,9.37.24,1.63-1.05,3.92,1.26,4.76s4-.21,5.53-2.12c2.27-2.8,5.09-4.46,8.49-1.58,3.63,3.08,2.54,7.42-1.93,9.46-1.57.71-5.31-1-4.49,2.84a6.72,6.72,0,0,0,6.62,5.72C507,303,507.46,302.94,508.34,302.9Z" style="fill:#070707"/><path d="M340.91,499.24c-3.9,0-8,2.46-10.66-1.94.26-.35.43-.8.63-.82,10.33-.71,13.91-5.37,11.72-15.61a11.33,11.33,0,0,1-.41-4.38c.24-1.41-.69-3.79,2.1-3.58,2.23.17,3.78,1.43,3.62,3.88a100,100,0,0,1-1,10.37c-.64,3.72-.35,5.87,4.29,4.3A7.27,7.27,0,0,1,358,492.8c-2.31,2.6-5.58,1.93-8.21,2.83-3.12,1.05-4.57,2.67-4.74,6a95.1,95.1,0,0,0,.83,17.37c.16,1.3.87,3.2-1.62,3.31-2,.09-2.23-1.14-2.52-2.84C340.57,512.8,340.94,506,340.91,499.24Z" style="fill:#0b0b0b"/><path d="M235.55,195.84a8.27,8.27,0,0,0-4.73,5,11.85,11.85,0,0,0-1,2.79c-.2,1.31-1.47,2.86-1.91,2.46-3.91-3.56-5.58,3.61-9.09,1.73-1.73-.93-1.55-2.28-1.63-3.77-.18-3.14-.37-6.29-.82-9.4-.14-1-.6-1.83.47-2.52a2.18,2.18,0,0,1,2.75.35c1.43,1.67,3.52,1.42,5.13,2.24,2.92,1.48,4.59.46,6.34-1.67,1.27-1.54,2.66-3,5-2.33a5,5,0,0,1,3.67,4.83c.35,6.46.41,12.93.55,19.4,0,.82-.17,1.66-1.23,1.86a2,2,0,0,1-2.47-1.16,14.71,14.71,0,0,1-1.07-5.82C235.59,205.4,235.55,201,235.55,195.84Z" style="fill:#060606"/><path d="M603.62,50.09c-5,2.24-10,4.48-15,6.63-1.45.62-2.37,1.1-2.36,3.11,0,8.64-1.16,17.24-.61,25.9.06.93,1.28,2.5-.81,2.69a2.51,2.51,0,0,1-2.75-2.36c-.32-3.13-.46-6.3-.48-9.45,0-4.32,0-8.65.27-13,.2-3.44-1.09-3.58-3.72-2.25s-5.46,2.32-8.09,3.68-4.46.2-5.08-2c-.75-2.66,2.08-1.83,3.35-2.39,9.48-4.16,19-8.23,28.5-12.33C599.38,47.23,601.83,46.48,603.62,50.09Z" style="fill:#070707"/><path d="M32.88,405.83c.9-9.57,1.86-20.29,2.94-31,.37-3.64.82-7.23.13-10.89-.22-1.14-.88-2.87,1-3.35a3.33,3.33,0,0,1,4,2.13,7.89,7.89,0,0,1,.43,4.41c-2.27,17.77-4.23,35.57-4,53.54,0,1.42,1.29,4.15-1.88,4.11-2.85,0-2.69-2.23-2.64-4.35C32.94,416,32.88,411.48,32.88,405.83Z" style="fill:#080808"/><path d="M368.19,94.93c-1.08.19-2.33-.12-3.14,1-9.79-4-12.14-16.23-9.16-26.56a58.22,58.22,0,0,1,11.3-21.27c2.22-2.66,4.21-5.5,6.25-8.31,2.57-3.56,5.54-3.42,7.4.6,1.31,2.82,1.73,5.79-.73,8.64-1.91-2-.56-4.37-2-6.74A58.26,58.26,0,0,0,365.2,57.58c-4.58,7.42-7.42,15.4-6.5,24.35C359.33,88.13,361.57,93.12,368.19,94.93Z" style="fill:#0c0c0c"/><path d="M77,417.08l-1,3c-10.08.84-16.78-7-14.34-16.73a58.38,58.38,0,0,1,4.6-11.5c1.4-2.84,3.72-3.93,6.49-3.23s4.21,3.07,4,6.1c-.23,4-2,7.66-3.47,11.29-1.57,3.82-4.55.88-6.88.77C65.24,414.82,69.8,419.19,77,417.08Z" style="fill:#060606"/><path d="M683.37,392.5c1.82.31,2.37-.93,3.08-1.74,2.52-2.85,4.59-2,6.42.69.79,1.16.93,3.31,3,2.58,1.64-.59,1.45-2.51,1.36-4-.29-4.86-.71-9.71-1.13-15.15,5.1,5.27,7.38,17.36,4.78,23.1-1.73,3.81-4.61,2.45-6.49.74-3.94-3.59-6.38-3.91-8.65,1.65-1.27,3.11-3.81,1.48-4.92-.45-3.06-5.36-2-11.6-3.21-17.39-.2-1,.83-1.49,1.69-1.22,1.54.48,3.25.85,3.38,3C682.79,387.05,683.1,389.69,683.37,392.5Z" style="fill:#0a0a0a"/><path d="M99,512.81c-.07,3.79-1,8.48.44,13,.54,1.64.15,2.79-1.4,3a2.48,2.48,0,0,1-3-2.56c-.07-4.15,0-8.31.13-12.46.07-3.16.32-6.32.33-9.48,0-.83.32-2.25-1-2.39-1.09-.1-1.54.91-2,1.9-2.54,5.9-5.39,11.71-5.45,18.34,0,1.45-.14,2.87-1.7,3.15-2.34.41-3.65-1.08-4.56-3.07-.67-1.46-2.14-3.25.07-4.2,3-1.31,3.07-4.08,3.94-6.45,1.72-4.65,3.52-9.23,6.83-13,1.22-1.4,2.68-2.83,4.61-2.18a5,5,0,0,1,3.41,5.05C99.55,505,99.23,508.48,99,512.81Z" style="fill:#0a0a0a"/><path d="M156.62,191c.79,9-1.41,18.21,2.22,27,.41,1-.27,1.54-.92,2a2,2,0,0,1-2.33-.07c-2.1-1.24-2.43-3.25-2.58-5.54-.88-13.08-1.13-26.18-1.08-39.29a11.45,11.45,0,0,0-.44-3.89c-.68-1.82-1-3.47,1.42-3.7,1.88-.17,3.21.64,3.57,3.1.81,5.49.06,10.94.13,16.4C156.63,188.34,156.62,189.67,156.62,191Z" style="fill:#111"/><path d="M552.73,503.56c.16,2.73-.11,5.21.87,7.61.37.92,1.57,2.2-.09,2.91a2.44,2.44,0,0,1-3.08-1c-1.54-2.76-2.94-3.1-6-1.44-3.47,1.89-8-2.85-7.23-7.42.93-5.67,5.2-9.45,8.63-13.56,1.73-2.06,5.25-.27,5.76,2.92C552.14,497,553.4,500.29,552.73,503.56Z" style="fill:#070707"/><path d="M352.33,506.82c-1.08-1.9-.3-3,2-4.11,1.39-.68,2.11-2.84,3-4.39,1.42-2.44,3.52-3.08,5.93-2s3.76,2.78,3.2,5.54a17,17,0,0,1-5,9c-1.1,1.06-3.47,1.35-2.22,3.64,1.1,2,3.1,2.31,5.22,2a6.72,6.72,0,0,0,4.11-2.62c1.2-1.38,2.39-1.71,3.76-.27s.16,2.57-.61,3.46c-2.53,2.91-5.89,3.5-9.48,2.66-4.9-1.13-8.29-4.05-9.64-9A22.87,22.87,0,0,1,352.33,506.82Z" style="fill:#080808"/><path d="M368,200.79l-1.91-.77c.81-1,3.08-1,2.41-3.12-1.11-3.48,1.59-5.84,2.41-8.75,1.66-5.9,6.57-6,11.2-6.6,2.53-.32,3.63,1,3.52,3.55-.15,3.48-.44,7,.29,10.42.33,1.59-.21,3-2,2.37-3.12-1.11-4.43.54-5.82,2.81s-3.59,2.66-6.06,1.47C370.75,201.54,369.64,200.3,368,200.79Z" style="fill:#080808"/><path d="M617,294c-9.58,5.39-14.33,2.86-14.89-7.85-.31-6.12-.78-12.24-1.16-18.36-.08-1.24-.85-3,1-3.31s2.69,1.26,2.83,2.77c.33,3.29.41,6.61.52,9.91,0,1.36-.1,3.07,1,3.69,1.64.93,2-1.2,2.9-2a29.91,29.91,0,0,0,2.71-2.91c1.07-1.23,2.07-2.17,3.67-.62,1.34,1.31,1.28,2.37.17,3.85-2.26,3-4.4,6.15-6.43,9.33-.75,1.17-2.06,2.6-.9,4,1,1.21,2.45.28,3.71,0,1-.24,2-.31,2.94-.46,1-.7,2.1-.88,2.84.15C618.42,292.92,617.69,293.55,617,294Z" style="fill:#070707"/><path d="M306.44,73.55c-.36,1.23-1.57,1.54-2.54,2.11-3,1.75-7.63,3.23-7.21,6.63.34,2.77,5.35,1.58,8.21,2.44C309.2,86,314.53,86.94,315,92c.44,4.91-4.65,7.15-8.32,9.59-1.32.87-3,1.67-4.7,1.16-1.51-.45-3.46-1-3.27-3s1.87-1.1,3.17-1.13c3.92-.1,6.18-2.76,7.93-5.86,1-1.75.33-3.12-1.46-4.06a17.61,17.61,0,0,0-7.65-1.66,23.77,23.77,0,0,1-5.43-.45c-2.28-.64-4.36-2-4.48-4.7-.18-4.11,10.64-11.31,14.35-9.68C305.73,72.54,306.38,72.66,306.44,73.55Z" style="fill:#0c0c0c"/><path d="M294.8,188.92c4.26-.39,5.58,1.68,5.11,5.69a29.46,29.46,0,0,0,1.27,12.25c.37,1.21,1.3,2.94-.25,3.53s-3.16-.68-3.62-2.39c-.86-3.21-1.85-4.05-5-1.7s-6.77.4-8.2-3.45.92-14.53,3.94-17.35c2.14-2,5.18-.43,6.86,3.54-5.47,3.88-6.34,6-4.72,11.49C294.43,197.65,292.69,192.5,294.8,188.92Z" style="fill:#101010"/><path d="M208.73,200.57c-.4,2.58.42,5.48,1.21,8.33.36,1.29,1.38,2.53-.36,3.28a2.57,2.57,0,0,1-3.29-1.56c-1.4-3.22-2.5-2.71-4.64-.44s-5.78.76-7.2-2.38c-1.83-4.07.22-13.36,3.58-16.34a3.05,3.05,0,0,1,2.75-.63C206.49,191.71,208.76,194.31,208.73,200.57Z" style="fill:#0d0d0d"/><path d="M396.55,159.62c0,9.44-.56,18.86-1.46,28.26a27.37,27.37,0,0,0,.12,6.46c.28,1.95.74,4.14-1.77,4.23-2.08.08-3.58-1.72-3.44-4.08.32-5.3.71-10.59,1.13-15.88.69-8.6,1.95-17.21,0-25.8-.33-1.43.05-2.5,1.32-2.7A3.11,3.11,0,0,1,396,152.2C396.9,154.6,396.5,157.13,396.55,159.62Z" style="fill:#070707"/><path d="M301.85,318.1c-5.19-2.61-6.15-7.25-5.06-12.2,1.25-5.7,4.32-10.54,10.12-12.62,2.5-.91,4.88.83,6.58,2.64,2,2.15,1.91,4.93.66,7.41-2.43,4.79-5,9.52-11.77,8.57-1.53-.22-1.28,1.1-1.35,2,.51,1,1.32,1.73,1.8,2.69S303.51,318.51,301.85,318.1Z" style="fill:#0b0b0b"/><path d="M411.65,409.38a35.36,35.36,0,0,1,7.4-15.2c2.42-2.93,4.29.73,4.56,2.49,1.06,6.77,4.43,12.53,7.26,18.53.46,1,1.83,1.86.15,2.84-1.17.69-1.77-.36-2.38-1.09a9.38,9.38,0,0,1-1.44-2c-1.58-3.59-3.2-5.75-6.35-1.12-1.42,2.09-3.82,1.89-5.91,1S411.68,412.07,411.65,409.38Z" style="fill:#101010"/><path d="M501.47,167.42c-.71,3.73.33,6.51,5.06,6.55.65,0,1.37.13,1.51.94.2,1.16-.78,1.49-1.52,1.5-5,.11-4.6,3.5-4.47,6.91.1,2.82,0,5.66-.07,8.48,0,2-1,3.12-3.1,2.72s-1.8-1.56-1.39-3.32a26.76,26.76,0,0,0,.26-6.94c-.12-3-.34-5.9-4.76-5.53-1.11.1-3.39-.43-3.21-2.39.2-2.22,2.31-1.49,3.61-1.42,3.27.16,4.06-1.51,3.67-4.32a48,48,0,0,1-.73-5.93c0-1.41-1-3.56,1.79-3.74s3.53,1.27,3.36,3.69C501.43,165.44,501.47,166.28,501.47,167.42Z" style="fill:#0a0a0a"/><path d="M434.56,302.18c-.1-5.46,2.64-9.21,2.88-13.58.1-1.73,1.37-1.73,2.94-1.07,4.69,2,10.74,11.6,10.23,16.6-.41,3.92-4.08,7.24-7.72,7A9.3,9.3,0,0,1,434.56,302.18Z" style="fill:#0d0d0d"/><path d="M505.91,187.09c-.68-5.42,3.73-8.63,7.33-12.11,1.83-1.76,4.45-1.3,6.35.35,2.1,1.82,1.75,4,.32,6.23a10.77,10.77,0,0,1-6.29,4.57c-2.61.71-3.11,2.09-2.73,4.34.47,2.78,2.39,2.16,4.2,1.74,1.25-.29,2.88-.93,3.35.69.42,1.46-1.14,2.17-2.34,2.78C511.13,198.16,505.65,193.87,505.91,187.09Z" style="fill:#070707"/><path d="M147.67,402c0,4.13.07,8.27,0,12.4,0,1.44,1.06,3.75-1.58,3.91-2.33.13-3.45-1.24-3.42-3.8.06-6.13-.12-12.25-.2-18.38a83.65,83.65,0,0,0-1.53-15.71c-.3-1.45-2.08-3.52.64-3.91,1.63-.24,3.39.65,4,3.34,1.33,6.2,1.35,12.43,1.73,18.67.07,1.15,0,2.32,0,3.48Z" style="fill:#050505"/><path d="M126.35,506.62c0,6-1.14,12.76-.31,19.59.14,1.18,1,3.38-1.31,3.53-2.1.14-2.57-1.65-2.74-3.44-.82-8.66,0-17.31.53-25.94a43.48,43.48,0,0,0-.79-11.86c-.46-2-.42-3.53,1.7-3.68a2.9,2.9,0,0,1,3.19,3A124,124,0,0,1,126.35,506.62Z" style="fill:#121212"/><path d="M43,526c-5.12-15.86-1.21-30.67,5.32-45.14,1.56-3.45,3.43-6.77,5.2-10.13.41-.78.53-2.07,2-1.52a5.32,5.32,0,0,1,3.23,2.91c.42.94.75,2.25-.33,2.67-7.27,2.79-8.22,9.94-10.53,15.81-4.49,11.38-6.33,23.22-2.87,35.36.17.45.22,1-.3,1.11C43.9,527.3,43.44,526.63,43,526Z" style="fill:#141414"/><path d="M538.26,490.34c-2.43-.85-3.94.53-5.29,2.42-2.68,3.74-6,7.11-6.33,12.11-.34,5.83,1.45,7.84,7.23,8,1.23,0,3.12-.73,3.3,1s-1.67,2.11-3.2,2.29c-8.57,1-14.49-7.48-11.19-16.15,1.92-5,5.53-9,8.84-13.06,2-2.5,8.35-1,9.17,2.09C541.45,491.52,539.49,490.43,538.26,490.34Z" style="fill:#101010"/><path d="M397.7,499.74c-.57,2.14-1.73,1.77-3.05,1.15-4.79-2.27-6.66-1.49-8.72,3.32-1.67,3.91-1.61,8.05-1.81,12.15-.08,1.71.07,3.74-1.88,4a3.72,3.72,0,0,1-4.1-3.52c-.29-3-1.36-5.76-2-8.65-.17-.81-.43-2.25.22-2.14,5,.9,4.22-3.76,5.78-6,3.94-5.62,9.92-7.12,13.72-3.08A19.69,19.69,0,0,1,397.7,499.74Z" style="fill:#0b0b0b"/><path d="M790.85,485.06c5,10.6,1.17,19.94-4.19,29.05-2.73,4.65-5.46,9.32-8.38,13.86-.87,1.35-1.61,2.7-1.16,4.13s1.24,3.2-1,3.46c-2,.24-3.28-1.43-3.42-3.44-.18-2.42,1.09-4.45,2.25-6.48,3.75-6.59,8.3-12.67,11.91-19.37A28.48,28.48,0,0,0,790,489C789.58,487.56,788.45,485.92,790.85,485.06Z" style="fill:#0e0e0e"/><path d="M135.1,516.43c.4,1.28-2,4.88,1,5.66,2.37.63,3.39-3.08,4.64-5.08,1.91-3.06,3.59-6.29,3.54-10.1,0-.91-.9-2.52,1.36-2.25,1.45.17,2.78.46,2.69,2.2a17.74,17.74,0,0,1-.82,4.86,41.28,41.28,0,0,1-6,11.35c-1.44,1.94-2.48,4.75-5.58,4-3.3-.79-4.74-3.63-5.19-6.67-.5-3.43-.41-6.94-.65-10.41-.11-1.57.39-2.82,2-2.77a2.75,2.75,0,0,1,3,2.71C135.15,511.77,135.1,513.61,135.1,516.43Z" style="fill:#0c0c0c"/><path d="M646.92,513.27c-5.79-2.77-6.29-7.44-7.92-11.38-.58-1.41-.15-3.87-2.4-3.79-2,.06-2.06,2.37-2.56,3.85a49.22,49.22,0,0,0-1.93,7.14c-.33,1.8-.51,3.49-2.91,2.86-2.2-.57-3.54-2.05-2.71-4.4a83.84,83.84,0,0,1,4.41-11c2.52-4.85,8.39-5.19,10.52-.43C643.7,501.2,644.91,506.79,646.92,513.27Z" style="fill:#0b0b0b"/><path d="M617,294c1-2.33-.78-1.81-1.94-1.94,1.72-.86,3.42-1.74,5.15-2.57,2.74-1.31,4.91-2.49,2.52-6.24-1.76-2.75.66-5,2.5-6.91,1.66-1.68,3.3-.64,4.81.65,2.07,1.78,2.58,3.66-.07,5.12-3.19,1.75-2.29,3.46-.4,5.42.93,1,1.81,2,2.7,2.95,2,2.27,4.45,5,1.9,7.77s-6.35,3.13-9.65.49c0-1.48,1-1.24,1.67-1.5,1.79-.62,4.63-.63,4.35-3.17-.3-2.71-2.87-4.36-5-5.92-1-.75-1.68.44-2.31,1.23A12.51,12.51,0,0,1,617,294Z" style="fill:#121212"/><path d="M651.31,514.65c9.29-5,9.26-5,.71-10.88-3.73-2.58-7.06-5.5-7.55-10.55-.25-2.53.56-4.36,2.82-5.05,2.61-.8,5.36-.71,7.27,1.75,1.05,1.34.49,1.82-1.16,2.11-4.89.86-5.53,3.05-2.3,7.06,2,2.51,5.09,3.65,7.54,5.61,2.78,2.22,6.85,3.88,4.52,8.5C661.51,516.45,655.92,517,651.31,514.65Z" style="fill:#131313"/><path d="M368.39,417.18c-1.2-.35-2.62-.74-4-1.18-1.56-.48-3-1.54-2.37-3.18.84-2.2,2.1.18,3.21.18,1.95,0,4.32.82,5.46-1.21s-1.29-3.08-2.4-4.31c-3.48-3.85-8.37-6.87-6.61-13.37a8.75,8.75,0,0,1,1.76-3.48c1.06-1.22,2.42-.79,3.64-.12,1.47.82,1.75,2.21.7,3.33-3.57,3.8-1.07,6.61,1.35,9.44,1.19,1.38,2.59,2.58,3.82,3.92,1.76,1.91,4.48,3.66,3.07,6.72S371.42,416.71,368.39,417.18Z" style="fill:#181818"/><path d="M101.21,519.28c.83-6.91,5.44-11.83,9.3-17.1,1.29-1.75,3-1.08,4.12.55s.84,2.82-1.13,3.89c-5.22,2.87-7.34,7.78-8,13.43-.2,1.82,0,3.74,2.1,4.56a4.46,4.46,0,0,0,5-1.29,10,10,0,0,1,1.83-1.68c1.2-.7,1.6-3.85,3.61-1.84,1.53,1.53-.61,3.06-1.51,4.21-2.52,3.27-6,5.08-10,3.44C103.15,526.09,100.7,523.55,101.21,519.28Z" style="fill:#131313"/><path d="M624.11,187.05c.1.64.22,1.29.31,1.94.25,2,0,4.13-2.27,4.16s-2.36-2-2.46-4.07a244.64,244.64,0,0,0-2.86-27.65c-.22-1.37-2.18-3.48.51-4.06,2.18-.48,4.06.44,4.32,3.44.77,8.74,1.81,17.47,2.74,26.2Z" style="fill:#1a1a1a"/><path d="M524.93,54c-7.23-6.72-6.85-12.79,1.36-18.12a21.44,21.44,0,0,1,18.05-2.7c2,.54,3,1.73,4.73,3.64-4.79,0-8.74-1.07-12.79-.34a18.16,18.16,0,0,0-8,3.52c-5.14,4-5.38,7-1.29,13.09C526.87,54.77,526,54.69,524.93,54Z" style="fill:#161616"/><path d="M679.72,173.71c1.58.47,3.2,1.32,3.31,3.17.28,4.49,2,2.61,3.71,1s3.32-3.83,6.07-4c1.11-.07,2.47-.29,3.17.89.82,1.38-.38,2.2-1.26,2.84a23.73,23.73,0,0,0-8.6,11.81c-1.22,3.48-3.5,2.51-4.56.36-2.19-4.46-2.73-9.47-3.31-14.39C678.14,174.35,678.57,173.75,679.72,173.71Z" style="fill:#0b0b0b"/><path d="M429,309.43a7,7,0,0,1-8.71,1.79,7.76,7.76,0,0,1-4.93-6.84C415,299,418,295,420.43,290.7a73,73,0,0,1,4.63-6.39c.69-.94,1.38-2,2.77-1.69s2.18,1.54,2.73,2.69c.74,1.57-.9,1.78-1.71,2.48-4.75,4.09-8.34,9-9.09,15.35-.64,5.5.6,6.49,6,5.59A3.14,3.14,0,0,1,429,309.43Z" style="fill:#141414"/><path d="M400.54,509.79c-.14-1.09-.3-2.71-.54-4.33-.29-1.93-.49-3.8,2.21-4,1.84-.13,2.21-1.65,3-2.85,2-2.86,4.68-4.11,8.16-3,1.56.49,3.77,1,3.64,2.79-.19,2.44-2.41.78-3.61.78-2,0-3,1.1-3.93,2.51a20.55,20.55,0,0,0-3.31,11.23c0,1.52,1.25,4.09-2,4-2.78-.1-4.25-1.57-3.8-4.54C400.5,511.67,400.48,511,400.54,509.79Z" style="fill:#0f0f0f"/><path d="M566.14,69.94c3.44,2.38,2.44,4.92-.25,6.76-8,5.49-17.25,7.16-26.8,7.31-.88,0-1.76-.74-2.68-1.06s-1.82-1-1.53-2.13c.39-1.58,1.57-.57,2.41-.52,7.63.51,14.73-1.71,21.66-4.45,2.32-.92,5-2.22,4.88-5.56C564.26,68.5,564.26,68.5,566.14,69.94Z" style="fill:#141414"/><path d="M298.79,396.41c-7.58-1.6-10.63,1.44-10.49,10.4,0,2.21,1.58,5.61-2.68,5.23-3.63-.32-3.59-3.38-3.08-6.13a53.86,53.86,0,0,1,2-8.18c2.84-7.94,8.5-9.35,14.87-3.87.5.43,1.08.76,1.62,1.14A2.55,2.55,0,0,1,298.79,396.41Z" style="fill:#121212"/><path d="M566.14,69.94c-.78,0-1.72-1-2.31.35-6.67-5.19-14.63-7.11-22.61-9-5.88-1.39-11.81-2.7-16.29-7.25l2-.91c10.21,5.11,21.79,6.27,32.07,11.15C561.82,65.62,564.68,66.91,566.14,69.94Z" style="fill:#323232"/><path d="M73.38,516.31c-.87-4.65.56-9.2-1.07-13.54a1.56,1.56,0,0,1,.8-2.09c.89-.43,1.54.07,2.24.56,1.57,1.11,1.73,2.72,1.71,4.42,0,7-.13,13.92-.14,20.87,0,1.43-.16,2.94-1.78,3-2,.12-2.3-1.44-2.22-3.1C73.09,523,73.24,519.52,73.38,516.31Z" style="fill:#191919"/><path d="M790.85,485.06c-1.19,1.13-.53,2.66-.87,4-4.05-11.76-11.82-20.43-22.32-26.82-1.09-.66-2.69-.89-2.67-2.59a4.25,4.25,0,0,1,.63-2.28c.18-.25,1.36-.15,1.79.17C777.29,464.93,786.45,473,790.85,485.06Z" style="fill:#343434"/><path d="M195,299.81c-7.88,4.08-7.72,4-4.79,12.89.44,1.36,3.38,4.16-.39,5.26-3,.88-4.46-.85-4.73-4-.17-1.91-1.16-3.77-1.89-5.61-2.18-5.52-.34-8.79,5.59-9.4C190.6,298.73,192.65,298.32,195,299.81Z" style="fill:#111"/><path d="M281.22,81c1-1.15-1-4,2.11-3.92,2.66,0,3.53,1.76,3.43,4.31a52.21,52.21,0,0,0,1,12.83c.23,1.1,2.31,2.92-.32,3.59-2.18.56-3.84-.43-4.21-3-.2-1.3-.71-2.56-.88-3.86C281.89,87.67,281.58,84.38,281.22,81Z" style="fill:#1e1e1e"/><path d="M298.79,396.41A2.34,2.34,0,0,1,301,395c2.4-.3,3.18.88,3.27,3.16.17,4.3.59,8.59.86,12.9.09,1.5,1.23,3.75-1.27,4-2.24.23-3.69-1.51-3.67-3.81A101.13,101.13,0,0,0,298.79,396.41Z" style="fill:#0c0c0c"/><path d="M420.38,509c.39-3.55.84-6.82,1.07-10.11.12-1.86.62-2.72,2.68-2.28,1.88.39,3.22,1.14,2.66,3.25a40,40,0,0,0-1.4,14.64c.14,1.36-.14,2.33-1.52,2.62a2.36,2.36,0,0,1-2.92-2A54.67,54.67,0,0,1,420.38,509Z" style="fill:#050505"/><path d="M138.07,412.15c-.78,1.74,1.19,4.67-2.33,4.68-3.24,0-3-2.52-2.91-4.68.06-3.36-.77-6.56-1.47-9.8-.24-1.11-1.6-3.11,1-3.49,2-.3,3.62.32,4,2.67C136.93,405.12,137.52,408.71,138.07,412.15Z" style="fill:#131313"/><path d="M171,519.76c-.38-2.07-.12-4.75-1-7.33-.36-1.07-.64-2.84,1.25-3.24a2.63,2.63,0,0,1,3.07,2,40.49,40.49,0,0,1,.61,15.24c-.13,1.08-1.09,1.09-1.93,1-1.07-.07-2-.44-2-1.71C171,523.94,171,522.11,171,519.76Z" style="fill:#0d0d0d"/><path d="M267.06,324.24c0-1.81-.05-3.63,0-5.44,0-1-.67-2.54,1-2.82s2.51,1,2.85,2.24a13,13,0,0,1,.25,4.4c-.28,3.76-1.41,7.44-1.15,11.27.05.82.64,2.22-.91,2.31a2.1,2.1,0,0,1-2.24-2.16c-.1-3.26,0-6.53,0-9.8Z" style="fill:#121212"/><path d="M301.85,318.1c1.39-1.72-1.76-2.54-.82-4.16,4.28,4.16,8.51,4.44,13.61,1,1-.69,2-3,3.53-.93s-.06,3.42-1.66,4.37C311.59,321.34,306.66,321.85,301.85,318.1Z" style="fill:#333"/><path d="M43,526c.69.16,1.39.73,2.06,0,2.46,2.42,3.69,5.75,6.51,8s6.26,1.48,9.19,3.33C54.08,540.05,46.87,535.32,43,526Z"/><path d="M230,257c1.09-2.13,4,.16,5-2.05a7.52,7.52,0,0,1,2.25.72c1.65,1.21,4.57,2.81,3.13,4.69-1.8,2.35-3.07-1-4.37-2C234.15,256.84,232.06,257.2,230,257Z" style="fill:#3d3d3d"/><path d="M784.42,144.17a3.76,3.76,0,0,1,3.26,3c.2,1.32-.94,2-2.31,1.87a3.38,3.38,0,0,1-3.37-3.57C782,144.09,783.2,144.17,784.42,144.17Z"/><path d="M785.29,176.6c.12,1.71-.43,2.4-1.69,2.31-2.06-.15-3.45-1.21-3.61-3.33-.09-1.16.21-2.53,1.84-2.32C784,173.53,784.3,175.67,785.29,176.6Z"/><path d="M766.45,172.3c.1,2.19-.38,3-1.88,3-1.86,0-3.12-.78-3.41-2.73-.21-1.42.41-2.41,1.82-2.08S766.4,170.85,766.45,172.3Z"/><path d="M746.92,149.23c1.93.51,3.69,1.11,3.86,3.29.09,1.2-.91,1.64-2,1.57a3.77,3.77,0,0,1-3.67-3.25C745,149.88,745.91,149.18,746.92,149.23Z"/><path d="M730,174.53c-.38,1-.66,2.1-1.94,1.77-1.78-.45-3.51-1.2-3.83-3.28a1.49,1.49,0,0,1,1.87-1.67A4.55,4.55,0,0,1,730,174.53Z" style="fill:#080808"/><path d="M751.88,503a34.34,34.34,0,0,0-4.29-9.88c3,1.05,3.86,4.12,5.82,6.15C754.82,500.73,753.58,502.23,751.88,503Z" style="fill:#fdfdfd"/><path d="M786.51,156.2a1.48,1.48,0,0,1-1.36,1.76c-2.16.14-3.29-1.33-4.06-3.06-.44-1,.18-1.59,1.18-1.61C784.38,153.25,785.52,154.65,786.51,156.2Z"/><path d="M747.26,180.63c1.8.06,3.31.64,3.76,2.46.36,1.43-.55,2.16-1.94,2a4,4,0,0,1-3.58-2.84C745.14,180.83,746.32,180.74,747.26,180.63Z"/><path d="M133.6,380.69c1.17,0,2.73.22,2.7,2.56,0,1.53-.74,1.88-2.13,1.87a2.88,2.88,0,0,1-3.06-2.53C130.74,381,131.67,380.58,133.6,380.69Z" style="fill:#1f1f1f"/><path d="M749.68,174.21c-1.54-.49-3.17-1.1-3.41-3-.16-1.25,1-1.57,2-1.42a3.25,3.25,0,0,1,3.17,3.12C751.57,174.05,750.55,174.06,749.68,174.21Z"/><path d="M784.09,193.2c-.16,1.21-.86,1.93-2,1.61-1.42-.39-2.9-1-2.84-2.89a1.58,1.58,0,0,1,1.91-1.71C782.8,190.5,783.57,191.78,784.09,193.2Z"/><path d="M784.2,186.21c-.06,1.85-1,2-2,1.84a3,3,0,0,1-2.85-2.8c-.08-.94.55-2.1,1.73-1.85A4.73,4.73,0,0,1,784.2,186.21Z"/><path d="M750.55,165.22c-1.76-.21-3.27-.79-3.42-2.79a1.18,1.18,0,0,1,1.64-1.23c1.43.58,3.43.65,3.54,2.8C752.36,165.08,751.37,165.14,750.55,165.22Z"/><path d="M794.33,159.71c1.42.33,2.94.92,3.26,2.88a1.24,1.24,0,0,1-1.43,1.54,3.86,3.86,0,0,1-3.59-2.9C792.31,160.38,793.05,159.72,794.33,159.71Z"/><path d="M429.25,478c-.09,1.15-.85,2-1.82,1.85a3.79,3.79,0,0,1-3.44-2.95c-.22-1,.57-1.44,1.49-1.36C427.15,475.64,428.64,476.13,429.25,478Z" style="fill:#2d2d2d"/><path d="M765.1,190.53c-.07,1.07-.57,1.76-1.53,1.51-1.42-.37-2.94-1-3.35-2.55-.33-1.25.87-1.67,1.87-1.58A3.29,3.29,0,0,1,765.1,190.53Z"/><path d="M796.18,148.28c-1,.06-2-1.15-2.38-2.87a1.28,1.28,0,0,1,1.36-1.61,3.79,3.79,0,0,1,3.67,2.73C799.27,147.81,798.37,148.23,796.18,148.28Z"/><path d="M794,191.42c.09,1.24-.18,2.06-1.24,1.93-1.29-.15-2.68-.47-3-2.06a1.57,1.57,0,0,1,1.54-2A3.07,3.07,0,0,1,794,191.42Z"/><path d="M284.61,70.62c-2.38.95-3.86-.21-5-2-.07-.11.55-.93.9-1C282.75,67.32,284.36,68,284.61,70.62Z"/><path d="M355.67,202.12c3.35.45,6.61,1.84,10.08.87C362.1,206.05,358.81,205,355.67,202.12Z" style="fill:#080808"/><path d="M681,291.8c0,1.6-.65,2.16-1.77,2.17-1.8,0-2.62-1.05-2.62-2.75,0-1.23.77-1.71,1.9-1.51C679.9,290,680.94,290.63,681,291.8Z" style="fill:#2f2f2f"/><path d="M787.31,163.43c-.25,1.2-.84,1.54-1.78,1.49a3.05,3.05,0,0,1-3.16-3c-.09-.91.45-1.64,1.44-1.39C785.49,161,786.32,162.4,787.31,163.43Z"/><path d="M666.09,294.43c0,1.37-.76,1.92-1.88,1.8a2.54,2.54,0,0,1-2.47-2.61,1.44,1.44,0,0,1,1.62-1.49A2.69,2.69,0,0,1,666.09,294.43Z" style="fill:#393939"/><path d="M794.44,151.92c1.88.72,3.48,1.27,3.67,3.23.08.87-.38,1.74-1.38,1.53a3.74,3.74,0,0,1-3-2.89A1.76,1.76,0,0,1,794.44,151.92Z"/><path d="M793.39,169a5,5,0,0,1,3,3c.27.89-.17,1.85-1.2,1.55-1.34-.39-3.07-.65-3.08-2.67A1.72,1.72,0,0,1,793.39,169Z"/><path d="M793.44,187.15c-1.47-.06-2.57-.63-2.78-2.21-.1-.78-.18-1.85.93-1.88,1.71-.05,2.6,1.3,3.19,2.63C795.25,186.74,794.32,187.05,793.44,187.15Z"/><path d="M78.67,490.48c.12.87-.61,1.32-1.41,1.41a2.32,2.32,0,0,1-2.55-1.83c-.29-1,.45-1.51,1.34-1.59C77.37,488.34,78.18,489.1,78.67,490.48Z" style="fill:#5a5a5a"/><path d="M645.35,298.07a2.48,2.48,0,0,1-2.28-2.06c-.23-1.44.88-1.48,1.92-1.46,1.36,0,2.21.66,2.15,2.08C647.1,297.57,646.46,298.07,645.35,298.07Z" style="fill:#373737"/><path d="M810,380.05c-.26,2.64,2.8,2.39,3.83,4.45a13,13,0,0,1-7.61,1.1c2.43-3.18,1.4-4.4-2.08-4.09-2.8.25-5.82-.11-8.35.85s-5.25.21-7.86,2h16.76c.5,2.1-.69,2-1.64,2.15-12.78,1.8-25.46,4.39-38.43,4.59-5.13.07-7.05-2-6.88-7.11.2-5.77,3.29-9.13,8.92-9.87,11.8-1.55,23.6-3.12,35.54-3.25a17,17,0,0,0,3.82-.92c1.51-.6,3-.93,3.39,1.25.32,1.92-1,2.65-2.64,2.89-3.25.49-6.49,1.06-10.48,1.82,2.77-.37,4.82-.24,6.84-.57C809,374.34,809,374.35,810,380.05Z" style="fill:#fafafa"/><path d="M759.13,372a20.25,20.25,0,0,1-1.53,2.44c-1.78,2.08-2.47,4.56-3.27,7.11-.43,1.41.76,3.88-1.49,4.2-1.74.26-2.7-1.77-3.71-3a175.09,175.09,0,0,0-13-13.66c-3.34-3.26-4.45-8.33-8.71-11.16-1.69-1.13,1.77-8.3,4.63-10.71s4.54-.38,6.18,1.5a209.77,209.77,0,0,0,17.17,17.35A15.07,15.07,0,0,1,759.13,372Z" style="fill:#fdfdfd"/><path d="M769.25,351.77a5.25,5.25,0,0,1-.74,1.72c-3.41,3.48-3.31,7.74-2.84,12.1.14,1.3.65,2.94-.77,3.6s-2.16-.94-3-1.9q-11.14-12.62-22.36-25.16c-.54-.6-1.27-.88-1.11-1.93.76-5,7.42-8.28,11.22-5.23,5.55,4.45,11.23,8.68,17.18,12.58A5.16,5.16,0,0,1,769.25,351.77Z" style="fill:#fcfcfc"/><path d="M775.73,369.1c-3.41.71-5.81-.19-6.05-4.18-.23-3.83-.86-7.67,4.18-9.18,8.28-2.49,16.88-2.83,25.37-3.78,7.2-.81,8.83,1.43,8.78,8.7,0,4.28-1.52,6.31-6,6.54C793.27,367.66,784.51,368.45,775.73,369.1Z" style="fill:#fafafa"/><path d="M805.43,347.08a267.58,267.58,0,0,1-27.64,3.73,4.67,4.67,0,0,1-4.1-1.39c-6-6.74-14.34-10.52-20.62-16.88-.46-.47-1.1-.85-1.38-1.41-.72-1.46-3.65-2.47-2.21-4.16a5.19,5.19,0,0,1,7.26-.6,45.7,45.7,0,0,1,5.38,5.13c4,4.14,8,8.34,11.94,12.52a3.55,3.55,0,0,0,3.64,1.12c5.74-1.8,11.8-.88,17.6-2.28C799.38,341.88,802.7,343.28,805.43,347.08Z" style="fill:#f9f9f9"/><path d="M783,328c-6.28-.21-10.73-3.63-14.63-8.16-1.84-2.14-1.57-3.42,1.07-4.35,5.44-1.92,10.3-2,14.87,2.54,3.12,3.1,7.1,5.35,10.69,8,1.06,3.13-1.38,3.64-3.34,4A10.2,10.2,0,0,1,783,328Z" style="fill:#f7f7f7"/><path d="M799,337c-6.21,3.25-13,3.19-19.74,3.38-2,.06-3.61-.86-3.6-3.16,0-2.85.22-5.76,3.38-7.06a9.82,9.82,0,0,1,3-.25c5-1.42,9-.22,10.89,3.59.72-.93.47-2.18,1.32-2.8a5,5,0,0,1,4.19-.94c1.71.47,1,2.2,1.06,3.41S799.87,335.81,799,337Z" style="fill:#f6f6f6"/><path d="M760.37,318.69c1.94.23,3.35,1.76,4.84,3a43.72,43.72,0,0,0,5.82,4.64c1.37.79,3.11,2,2.62,3.76a6.64,6.64,0,0,1-2.91,3.8c-2,1-2.7-1.39-3.78-2.42-2.76-2.61-5.25-5.49-8-8.15-1.41-1.39-.62-2.76-.29-4.14C758.89,318.4,759.49,318.19,760.37,318.69Z" style="fill:#f1f1f1"/><path d="M799,337v-6.79c-.35,2-7.77-2-3.4,3.94.79,1.07-1.24,1.53-2.3,1.59-1.29.07-3.51-.69-2.83-1.61,3-4.06-1.16-2.66-2.25-3a43.12,43.12,0,0,0-6.23-1.2l1-1.93c2.59.27,5.19.73,7.79.75,1.8,0,4.21.31,4.21-2.73,2.29,2.76,6.78,4.38,4.87,9.33A15.66,15.66,0,0,1,799,337Z"/><path d="M810,380.05c-1.73-1.27,0-3.61-1.65-5.08a20.53,20.53,0,0,1-15.55,1.42A29.11,29.11,0,0,1,806,373c1.18-.05,2.92.78,3-1.39s-1.94-1.16-3-1.68c2.67-1.82,4-1.06,4,2.12C810,374.72,810,377.39,810,380.05Z" style="fill:#0f0f0f"/><path d="M698.35,489.92c7.53-1.87,14.42.21,21.58,2.38,5.59,1.69,11.39-.82,16.69-3.25,2.44-1.11,3.92-.93,5.77,1.43,7.85,10,8.27,17.25.48,27.2C735.62,527,728,536,720.55,545c-1.18,1.44-2.08,3.43-4.81,2s-1.66-3.43-1.42-5.18c.63-4.58,1.5-9.13,2.42-13.67,2.46-12.09-.64-19.23-11.2-25.49C698.8,498.69,698,497.2,698.35,489.92Z" style="fill:#fdfdfd"/><path d="M719.51,488.78a6.72,6.72,0,0,1,4.81-3.57c1.55-.45,2.94-.87,2.72-2.86a3.4,3.4,0,0,0-2.88-3.06,22,22,0,0,1-9.52-4c-.68-.53-2-.94-2.6.22a1.87,1.87,0,0,0,.68,2.23,28.34,28.34,0,0,1,2.33,1.86c1.08,1.16,4.17,1.06,3.44,2.77a7.14,7.14,0,0,1-5,3.48c-5.26.49-10.62.12-15.88.09-2.87,0-5.6-4.18-6.61-7.91-4-14.8,10.61-28.85,25.8-26.29,12.87,2.18,17.35,10.94,21.51,21.2,4.05,10,4.3,9.86-5.67,13.71A26.75,26.75,0,0,1,719.51,488.78Z" style="fill:#fefefe"/><path d="M684.29,482.53a2.72,2.72,0,0,1,2.87-2.08,2.68,2.68,0,0,1,2.7,2.93c-.05,2.11-1.72,1.59-2.94,1.57S684,485.4,684.29,482.53Z" style="fill:#fff"/><path d="M61.48,180.35c.69,5,1.43,10,2.05,15,.18,1.42.54,3.27-1.42,3.74-1.73.42-3.66,1.18-5.36.24-1.92-1.06-.46-2.62-.15-3.95,1.17-5.09,2.37-10.16,3.55-15.24Z" style="fill:#fff"/><path d="M102.13,207.5c-3.32,2.05-3.26,7.25-7.48,9.33-2.06,1-3.53,0-3-2.12.75-2.8.61-6.52,4.73-7.2a4.58,4.58,0,0,0,2.68-2c.51-.61,1-1.42,2-1S101.76,205.84,102.13,207.5Z" style="fill:#fff"/><path d="M344.57,308c3.12.75,5-1.2,6.78-3.2.71-.78,1.14-2.62,2.44-1.69,1.13.82,1.29,3.47.48,3.87-2.56,1.27-3.35,4.14-5.63,5.47s-4.81,1.63-6.26-1.37C341.32,308.93,341.05,307.05,344.57,308Z" style="fill:#fff"/><path d="M348.7,296.5c.63,4.11-1.21,6.2-4.1,7.57-.71.33-2.06.19-1.79-.86C343.59,300.26,345.56,298.16,348.7,296.5Z" style="fill:#fff"/><path d="M516.62,396.46c.13,6.2-4.58,12.79-9.72,14.16-3.51.93-5.37-.73-4.18-4.1.59-1.66,1-2.69-.13-4.41-1.75-2.74.46-5.26,1.39-7.78,1.22-3.29,2.65-7.11,7-6.22S516,393.19,516.62,396.46Z" style="fill:#fff"/><path d="M531.54,399.88a6.21,6.21,0,0,1-.25,1c-1.31,2.94-2.8,5.72-6.45,6.19-.61.07-1.43-.23-1.34-1.09a10.79,10.79,0,0,1,5.31-8C530.34,397,531.73,397.7,531.54,399.88Z" style="fill:#fff"/><path d="M541,404.23c.71-1.53-.33-4.27,2.31-4.15a3.79,3.79,0,0,1,3.62,4c0,2.05-.68,4.21-3.19,4.15S541.27,406,541,404.23Z" style="fill:#fff"/><path d="M348.69,400.91c.17,3.87-2.4,6.44-4.21,9.33a2.24,2.24,0,0,1-2.75.6c-1.16-.48-.85-1.86-.56-2.63,1.07-2.82,2.61-5.47,3.54-8.33a2.33,2.33,0,0,1,3-1.74C349.38,398.39,348.09,400.09,348.69,400.91Z" style="fill:#fff"/><path d="M615.91,508.65a1.71,1.71,0,0,1-1.67-2.1c.19-2.77,1.84-4.89,3.36-7,.74-1,1.79-.78,2.42.22,1.15,1.81.38,3.51-.58,5.09S617.79,508.13,615.91,508.65Z" style="fill:#fff"/><path d="M605.21,501c1.7.22,1.06,1.35,1,2.27-.07,2.39-1,4.22-3.44,4.79-.93.22-1.54-.57-1.14-1.6C602.47,504.42,602.48,501.79,605.21,501Z" style="fill:#fff"/><path d="M639.2,180.17c-.16,5.14-2.48,7.12-5.66,8.17-1.75.57-2-1.23-1.81-2.17.58-3.19.75-7,4.72-7.89A2.2,2.2,0,0,1,639.2,180.17Z" style="fill:#fff"/><path d="M657,183.06c.42,3.82,0,5.9-3.26,6-1.64,0-3.11,0-2.7-2.28.52-2.89.81-6.73,3.8-7.37C657.32,178.83,656.8,182.36,657,183.06Z" style="fill:#fff"/><path d="M175.51,308.55a10.57,10.57,0,0,1-1.87,6.29c-.86,1.11-1.57,3-3.3,2.3-1.47-.62-1.45-2.55-1.23-4a42.46,42.46,0,0,1,1.76-7.67c.43-1.18-.19-3.58,1.9-3.39,1.74.16,2.45,1.95,2.5,3.76C175.29,306.68,175.41,307.5,175.51,308.55Z" style="fill:#fff"/><path d="M210.34,514.14l-4.81,5.91C206.06,517.23,207,514.75,210.34,514.14Z" style="fill:#fff"/><path d="M617.37,65.35c-.14-3.34.51-5.89,3.11-7.77,1.83-1.31,4.24-1.61,5.56-.62,1.57,1.18,1.56,3.46.69,5.82-1.37,3.75-5.12,4.79-7.68,6.35C616.67,70.59,618.23,66.38,617.37,65.35Z" style="fill:#fff"/><path d="M616.86,82c-3.84-1.67-5.48-5.06-7.38-8-1-1.55,1-2.11,2-2.69,1.22-.67,2.68-1,3.1.87C615.29,75.29,617,78.21,616.86,82Z" style="fill:#f3f3f3"/><path d="M59.1,261.51c1.42,0,1.88.8,1.36,2.51a20.4,20.4,0,0,1-5,7.89c-2.25,2.43-4.52,4.86-7,7-1.37,1.21-2.59,4-4.68,2.71-1.56-1-.85-3.78-.33-5.54.92-3.1-1.2-7,2-9.32A33.08,33.08,0,0,1,59.1,261.51Z" style="fill:#fff"/><path d="M474.07,498.3a6.45,6.45,0,0,1-5.24,4.73,1.66,1.66,0,0,1-1.82-2.24,9.74,9.74,0,0,1,5.83-5.5C473.72,495,474.3,496.34,474.07,498.3Z" style="fill:#fff"/><path d="M472,296.66c.66-2.26-.06-5.43,3-5.08,2.84.33,4.1,3.12,4.33,5.9.26,3.12-1.73,4.84-4.5,4.67C470.9,301.91,473.39,298.16,472,296.66Z" style="fill:#fff"/><path d="M483.06,186.42c-.26,2.3.56,5.08-3,5.26-2.75.14-3.37-1.87-3.12-3.87.34-2.6,1.41-5.67,4.25-5.83S482.61,184.9,483.06,186.42Z" style="fill:#fff"/><path d="M448.41,505.72c-.83,1.69.68,4.55-2.17,4.34a4.06,4.06,0,0,1-3.44-4.3c.19-2.14,1.7-4.62,3.93-4.43C449.24,501.55,447.23,504.49,448.41,505.72Z" style="fill:#fff"/><path d="M554.12,178.69c1.73.91,4.1,0,4.77,2.38a4.55,4.55,0,0,1-1.16,5,15.28,15.28,0,0,1-2.59,2.27c-2.54,1.38-5,3.56-8.2,2.15-1.54-.68-1.17-2.32-.55-3.47C548.27,183.58,550.26,180.19,554.12,178.69Z" style="fill:#fff"/><path d="M642.66,62c0-2.77.46-4.89,2.49-6.13,2.63-1.6,6.05-2.85,8.09-.3s-1.08,4.62-2.94,6.35a21.53,21.53,0,0,1-2.85,1.92c-1.19.8-2.41,2.55-3.75,1.63C642.82,64.83,642.88,62.83,642.66,62Z" style="fill:#fff"/><path d="M156.54,511.43c1.69,6.86-2.3,9.24-6.3,13.15C150.21,518.54,153,515.52,156.54,511.43Z" style="fill:#fff"/><path d="M191.42,90.51A32.84,32.84,0,0,1,188,101.83c-.35.66-.68,1.59-1.72,1.52-1.28-.09-1.49-1.11-1.69-2.08-1.19-5.52.92-10.27,3.52-14.88.4-.71,1.36-1.31,2.1-.73C191.63,86.81,191.2,88.62,191.42,90.51Z" style="fill:#fff"/><path d="M542.24,505.92a5.44,5.44,0,0,1-.13-1.52c.54-2.2.89-4.61,3.57-5.3.69-.18,1.25.58,1.08,1.28C546.14,502.83,545.76,505.55,542.24,505.92Z" style="fill:#fff"/><path d="M374.68,197c-.86-.17-1.47-.52-1.37-1.3.48-3.51,2.32-6.37,4.54-9a1.09,1.09,0,0,1,1.71,0c1.06,1.56-.35,2.84-.8,4.11C377.93,193.12,377.14,195.69,374.68,197Z" style="fill:#fff"/><path d="M294.8,188.92c.11,4.32-.42,8.52-2.88,12.2-.7,1-1.6,2.26-3.21,1.72s-1-1.91-1-3a20.29,20.29,0,0,1,1.1-6.73c1-3.19,3-4.4,6.14-4.11Z" style="fill:#f3f3f3"/><path d="M197.62,203.09c1-2.19,1-5,3.25-6.74a1.49,1.49,0,0,1,2.19.45c1.39,2.87-1.33,4.76-1.89,7.19-.25,1-.83,2.33-2.34,2.11C197,205.84,198.12,204.24,197.62,203.09Z" style="fill:#fff"/><path d="M303.45,308.07c-1.61-.17-2.68-.87-2-2.91a14.46,14.46,0,0,1,6.51-7.9c1.27-.78,2.56-.48,3,1.33C311.74,301.67,306.74,308.17,303.45,308.07Z" style="fill:#fff"/><path d="M419.32,400.56c3,4.2,1.59,7.5-.56,10.74a2.34,2.34,0,0,1-2.51,1.12c-1.29-.32-.95-1.51-.94-2.47C415.38,406.37,417.06,403.56,419.32,400.56Z" style="fill:#fff"/><path d="M438.75,301.49c1-2.33.18-7.18,4.11-6.87,3.08.25,3.31,4.84,3.57,7.87.25,2.81-1.36,5-4.31,5C438.62,307.39,438.76,304.47,438.75,301.49Z" style="fill:#fff"/><path d="M779.92,379.1c-2.52,1.15-6.67.84-10.73,1.25-1.64.16-3.91.27-4-1.82-.1-2.7,2.41-1.35,3.79-1.49,4.76-.45,9.53-.84,14.31-1.07,1.27-.06,3.53-.94,3.57,1.28,0,1.72-2,1.85-3.53,1.85Z" style="fill:#191919"/><path d="M781.72,384.06c-4.3,2.18-8.47,3.72-13,3.86-1.36,0-3.12-.08-3.28-1.56-.23-2.15,1.82-1.29,2.94-1.47C772.85,384.17,777.26,382,781.72,384.06Z"/><path d="M793,364.35a1.51,1.51,0,0,1-1.65-1.72c0-1.35,1.4-1.65,2.66-1.64s2.66-.08,4,0,3.22-1.92,3.49.71c.15,1.47-1.75,2.08-3.24,2.26C796.89,364.12,795.56,364.16,793,364.35Z"/><path d="M786.69,363.29c-3.48,3.93-6.85,2.7-10,2.51-.92-.05-1.33-1-1.3-1.83,0-1.12,1-1.2,1.79-1.16C780,362.92,782.78,363.09,786.69,363.29Z"/><path d="M782.58,360.33c-1.74-.86-4.75.73-4.77-2.3,0-1.47,2.54-1.23,3.8-1,1.77.29,4.83-.25,4.93,1.9C786.66,361.25,783.84,359.5,782.58,360.33Z"/><path d="M796.2,356.12c1,.32,2.86-.44,2.53,1.37-.3,1.65-2.27,1.59-3.6,2a1.78,1.78,0,0,1-2.38-1.67C793.09,356.11,794.94,356.37,796.2,356.12Z" style="fill:#151515"/><path d="M787.48,334.59c-.36,1.47-1.4,1.75-2.65,1.71-1.57,0-3.16-.3-3.28-2.2-.09-1.5,1.2-1.77,2.46-1.73A3.56,3.56,0,0,1,787.48,334.59Z"/><path d="M733.33,506.65c.12,2.67-1.27,3.62-3.34,4.46s-3.73,2.47-5.8.46-4.11-4.3-6.24-6.37a3,3,0,0,1-.5-3.64c.58-1.31,1.83-1,3-.36,1.64,1,3.18.15,4.74-.33C730.25,499.29,733.39,501.61,733.33,506.65Z" style="fill:#080808"/><path d="M706.68,468.05c0,2.91-1.39,4.21-3.11,3.76-2-.52-4-1.79-3.86-4.47a2.7,2.7,0,0,1,3.25-2.83A3.92,3.92,0,0,1,706.68,468.05Z" style="fill:#353535"/><path d="M730.11,467c-.53,2.17-1.69,3.56-3.86,3.16s-3.78-1.75-3.49-4.13a3.43,3.43,0,0,1,3.88-3.09C729.07,463.09,729.79,465,730.11,467Z" style="fill:#0d0d0d"/></svg>