<svg id="Layer_1" data-name="Layer 1" xmlns="http://www.w3.org/2000/svg" viewBox="0 0 741 268"><title>email-signup</title><path d="M371.52,293q-191.44,0-382.91.08c-3.54,0-4.73-.47-4.72-4.47q.21-160.71,0-321.42c0-3.79,1-4.27,4.42-4.27q383.16.13,766.33,0c3.3,0,4.49.29,4.48,4.21q-.23,161,0,321.92c0,3.56-.88,4-4.16,4Q563.22,292.93,371.52,293Z" style="fill:#fefefe"/><path d="M611,144c-16.6,1.87-33.25,1-49.88.86-27-.18-53.92-.73-80.87-.82-26.1-.09-52.19-.05-78.28.37-33.44.54-66.88.86-100.32.68-28.47-.16-56.94-.19-85.39.38-21.31.43-42.62,1.08-63.92.37-24.64-.81-49.27-.73-73.91-.62-6.3,0-12.6.67-18.9.81-2.44.05-2.75,1.17-2.5,3.13,3.44,26.91.17,53.75-.73,80.63-.14,4.13.29,8.28.46,12.43.08,2.08.07,4.42-2.73,4.35-2.54-.06-3-2.47-3-4.43,0-6.33-.17-12.68.32-19C52.74,205.05,54.47,187,54,168.8c-.23-8.45-.6-16.94-2.33-25.25-.58-2.81.3-4,2.9-3.49,12.28,2.18,24.57-.05,36.86.18q42.18.8,84.39.84c20.29,0,40.58-.78,60.87-.87,33.46-.15,66.92.13,100.39-.06q63.13-.37,126.27-1.28c20.32-.31,40.61.18,60.92.2,17.14,0,34.29-.14,51.42.37,11.14.33,22.22-.66,33.33-.55C610.16,140.39,611.62,141.78,611,144Z" style="fill:#fe6160"/><path d="M695.29,239.15c-.11.12-.31.26-.31.38.23,7,.23,7.27-7.9,7.25-25.78,0-51.31,3.82-77,4.76-16.92.62-33.87.38-50.81.71-16.76.34-33.52,1.21-50.28,1.3-12.62.07-25.18,1-37.77,1.5-19.54.78-39.06,2.21-58.6,2.68-17.41.42-34.77,1.82-52.21,1.78-15.27-.05-30.54,1.12-45.82,1.47-30.8.7-61.49-1.45-92.2-3.6-23.75-1.66-47.57-2.16-71.33-3.6-29.07-1.78-58.14-1-87.21-.54-4.44.08-8.88,1.15-13.38.72-2.14-.21-5-.43-4.8-3.13.19-2.87,3.06-1.69,4.89-1.72,20.59-.31,41.2-1,61.78-.72s41.29.46,61.91,1.87q28.63,2,57.31,3.6c17.11,1,34.23,2.25,51.36,2.58s34.25-.15,51.38-.59q32.15-.84,64.29-2.2c22.25-1,44.48-2.27,66.73-3.29,16.6-.77,33.2-1.49,49.81-1.94,29.1-.79,58.21-1.5,87.32-2,24.12-.41,48-3.65,72.12-4.78,6-.28,12-1.14,17.92-1.86.83-.1.28-1.11.25-1.71C694,237.4,694.74,238.06,695.29,239.15Z" style="fill:#fe605f"/><path d="M402.87,63.55c.37-3.72.6-7.45,1.13-11.15.81-5.67,3.72-10.07,9.19-12a16.1,16.1,0,0,1,16,2.64c4.07,3.18,4.48,6.29,1.83,10.87-3.07,5.34-8.17,8.6-12.72,12.46-2.53,2.15-7.29,3.83-6,7.61,1.34,4,5.9,1,9,1.32,3.73.34,7.58-.59,11.38-.74,1.37,0,3.41-.16,3.45,1.93,0,1.6-1.82,2-3,2.12-5.56.76-11,2.32-16.7,2.23-1.88,0-3.28.11-3.13,2.6.1,1.71.56,4-2.38,3.88-2.63-.09-4.47-1.27-4.78-4.08-.4-3.75-.77-7.5-2.81-11.61-2.67,4.68-4.25,9.27-8.33,12.46-4.33,3.38-8.43,5.3-13.6,2.56-4.91-2.59-7-7-7-12.33,0-6.64,2.33-12.65,5.79-18.23,1.16-1.85,3-3.57-.89-4.52a2.19,2.19,0,0,1-1.61-3.1,2.81,2.81,0,0,1,3.52-1.22c3.61,1.53,6.17.75,8.57-2.46,1.58-2.13,3.75-.46,5.25.71,1.65,1.28,1.31,3.18-.19,4.27s-1.59,1.9-.17,3C398.3,55.5,400.2,59.55,402.87,63.55Z" style="fill:#fe5b5a"/><path d="M695.29,239.15l-2.56-1.06c-2.58-.94-2.16-3.48-2.67-5.37-5.62-20.93-5.94-42.26-4.62-63.71.33-5.47.29-11,.53-16.44.12-2.8-.71-4.25-3.86-4.39-20.05-1-40.09-2.18-60.15-3-3.72-.15-7.47.84-11-1.22-1-1.58-2.42-3-2-5.09,3.16-.91,6.57-.86,9.55-2.51a4.06,4.06,0,0,1,5.33,1.42c2,2.7,4.76,2.89,7.51,3q23.89,1,47.81,1.81a16.91,16.91,0,0,0,5.37-.77c5.28-1.62,7.52,0,7.24,5.6-.52,11-1.32,21.89-1.73,32.84-.54,14.44,0,28.84,3,43,.75,3.54,1.6,7.08,4,10.08C699,235.93,698.4,238,695.29,239.15Z" style="fill:#fe5959"/><path d="M141.7,82c-.43-6.71.68-13.1,1.28-19.54.46-5-.64-5.64-5.34-3.63-.46.2-.9.42-1.35.64-5.89,2.94-5.9,3-.49,6.79,2.45,1.73,4.28,4,3.81,7.06S136.93,78,134,79.08c-9.61,3.49-22.17.27-27.5-7.21-5.81-8.14-5.12-21.4,1.71-29.81,4.83-6,10.05-11.49,17.35-14.56,5.63-2.37,12.13-1,14.68,3.28.5.84,1.27,1.77.48,2.69a1.92,1.92,0,0,1-2.73,0C132.64,29,127.87,32.08,123.54,35c-9.16,6.26-15.89,14.23-15.24,26.25a16.17,16.17,0,0,0,22.68,14c1.74-.75,2.86-1.76,2.89-3.58s-1.26-2.49-2.72-3.17c-3.15-1.45-6.44-1.4-9.78-1.36-2.19,0-4.73-.07-5.07-2.86-.33-2.62,2.29-2.22,3.86-2.88C126,59,131.66,56.35,137.47,54c7.36-3,11.8,0,11.44,7.91-.23,5.3-1.33,10.56-1.62,15.86a82.61,82.61,0,0,0,.54,11.43c.13,1.62.37,3.12-1.63,3.52a3.28,3.28,0,0,1-3.85-2.45C141.4,87.51,141.65,84.64,141.7,82Z" style="fill:#fe6160"/><path d="M477.05,65.73c-.76,7.42-1.51,14.84-2.3,22.26-.19,1.75,0,4.07-2.8,3.61-2.14-.34-4.14-.9-4-4,.54-12.29,1.19-24.57.84-36.88-.1-3.37,3-3.19,5-3.75,2.32-.65,4.54-.14,5.55,2.76,1.92,5.47,4.06,10.86,6.14,16.27a23,23,0,0,0,1.46,3.15c.47.83.91,1.94,2.15,1.71s1.28-1.5,1.47-2.35c1.32-6,2.48-12,3.75-18,.34-1.56.35-3.67,2.51-3.81A5.35,5.35,0,0,1,502,49c3.8,5.56,5.42,12.1,8.32,18,1.09,2.24,2.11,4.51,3.12,6.78.62,1.38,1.37,3-.31,4s-3.21-.15-3.91-1.28c-2-3.24-3.66-6.7-5.4-10.09-.6-1.19-1-2.46-1.6-3.66s-.86-2.85-2.53-2.66-1.57,1.81-1.83,3.11c-1,4.86-2,9.73-3.11,14.55-.39,1.67-.36,3.84-2.79,4.22s-4.09-.78-5.29-2.85c-2.7-4.65-5.47-9.25-8.22-13.88Z" style="fill:#fe5c5c"/><path d="M41.47,93.71a16.13,16.13,0,0,1-9.7-4.24C30,87.84,29,85.36,30.65,83.79c2.43-2.24,2.55,1,3.6,2.27a7,7,0,0,0,5.62,2.8c8.25-.42,16.12-2,22.52-7.76,3.57-3.21,3.64-6.27.52-9.89-3.79-4.4-8.78-6.95-13.95-9.28-9.33-4.2-19.15-7.2-28.33-11.77a25.28,25.28,0,0,1-9.11-7.57c-4.45-5.93-3.71-9.87,2.2-14.44a93.4,93.4,0,0,1,22.45-12.6c8.27-3.32,18.27-1.83,22.84,3.34.92,1,2.8,2.31,1.61,3.69S58,22.41,56.93,21.4c-6.22-5.89-13.12-3.47-19.62-1.08A69,69,0,0,0,19.19,30.47c-5.61,4.31-5.82,9.19-.42,14,4.94,4.43,11.32,6.06,17.21,8.66,9.82,4.32,20.15,7.5,28.78,14.33,9,7.07,8.82,13.83-.88,20C59.06,90.47,47.85,93.79,41.47,93.71Z" style="fill:#fe6463"/><path d="M194.32,66.75c-1-11.66-1.64-22.77-3.83-33.71-.38-1.93-1.78-5.07.81-5.66,2.39-.55,3.58,2.31,4.09,4.77,2.46,11.9,3.2,24,4.67,36.05.5,4.13,1.07,8.29.12,12.41-.33,1.44,1,3.61-1.47,4.17a5.18,5.18,0,0,1-5.37-1.88c-4.2-5.15-8.52-10.22-11.87-16-2.66-4.6-5.35-9.18-8.11-13.72-.76-1.26-1.8-3-3.31-2.63-1.87.45-1,2.57-1,3.9a116.27,116.27,0,0,0,2.44,22.78c.38,1.91,1.81,4.13-1.2,4.83-2.74.63-4.48-1-4.86-3.74a156.41,156.41,0,0,1-1.67-20.85c0-3.5,0-7,.09-10.49.05-1.71-.75-3.95,1.58-4.76A5.83,5.83,0,0,1,171.76,44c4.9,5.09,8.05,11.38,11.81,17.25,2.51,3.92,5,7.82,7.54,11.74.54.85,1.06,1.93,2.2,1.69,1.3-.28.93-1.61,1-2.5C194.4,70.15,194.32,68.17,194.32,66.75Z" style="fill:#fe605f"/><path d="M363.18,36c5.58.27,10.13,0,14.38,1.77,1.37.58,3,1.46,2.31,3.26s-2.13.79-3.43.59a61.31,61.31,0,0,0-22.23.32c-2.36.48-3,1.4-3,3.58,0,9.46.25,9.67,9.69,8a54.88,54.88,0,0,1,8.4-.76c1.33,0,3.46-.65,3.65,1.46.16,1.92-2.07,2.07-3.3,2.4-4.94,1.32-9.93,2.51-15,3.36-3.06.51-3.73,2.1-3.6,4.81a224.94,224.94,0,0,0,3.29,30.63c.25,1.34,1.58,3-.8,3.64a3.32,3.32,0,0,1-4.21-1.78,11.19,11.19,0,0,1-1.21-3.76c-.66-8.42-2.41-16.74-2.37-25.25,0-2.26.26-5-3-6.11-3.76-1.22-2.66-3.59-.2-4.78,4.84-2.35,2.2-6.25,2.34-9.49.06-1.35-1.54-.7-2.45-.69-2.24,0-4.58,0-5.22-2.72-.74-3.18,2.07-4.12,4.07-4.73C348.76,37.47,356.41,36,363.18,36Z" style="fill:#fe5c5b"/><path d="M643.83,76.59c0-3,1.49-6.26-2.21-8.48-1.49-.9-1-3,.44-3.8,8.27-4.72,9.44-13.1,11.06-21.2.4-2,.31-4.41,2.76-4.6s4.31,1.35,5,4c1.7,6.25,2.89,12.71,5.35,18.64,2.78,6.71,2.87,14.07,5.93,20.62.86,1.85,1.54,4.17-1.1,5-2.84.93-3.65-1.27-4.25-3.56-.81-3-2.11-6-2.67-9-.77-4.21-3.06-5.27-7-5-3,.24-4.61,1.06-4.85,4.27s-.9,6.23-1.33,9.35c-.26,1.86-.42,3.94-2.91,3.86a4.06,4.06,0,0,1-4.14-3.63A51.85,51.85,0,0,1,643.83,76.59Z" style="fill:#fe5a59"/><path d="M618.53,69c-1.44,3.7-1.48,7.3-1.45,11,0,2.08-.33,4.21-3.26,3.84-2.66-.34-4.51-1.77-4-4.65a170.92,170.92,0,0,0,3.37-31.57c0-1.5.68-3.06,2.52-3.26a3.77,3.77,0,0,1,4.09,2.23c1.31,2.75,1.32,5.79,1.89,8.7.2,1,.41,2.2,1.54,2.29s1.69-.89,2-1.9c.92-3,2-6,2.71-9,.52-2.24.92-4.52,3.78-4.31,2.69.2,4,2.08,4.26,4.72.28,3.47.45,7,.78,10.42.37,3.79.92,7.56,1.28,11.35.14,1.53-.13,3.24-1.78,3.76-2.1.65-2-1.61-3-2.62-1.64-1.84-.07-6-3-6-2.71,0-2.31,3.92-3.56,6C623.82,74.54,621.57,70,618.53,69Z" style="fill:#fe5b5a"/><path d="M532.12,105.44c.62-9.72,1.17-18.69,1.78-27.65.17-2.49,0-4.11-3.36-3.77-3.56.37-5.61-2.37-7.55-4.93-4.25-5.6-5.32-12.43-7.41-18.88-.56-1.74.06-3.44,1.59-3.55,1.8-.13,4,.32,4.61,2.81.8,3.39,1.53,6.79,2.46,10.15a22.61,22.61,0,0,0,2,4.56c1.59,2.95,3.19,3.69,5.08.09,2.49-4.77,3.71-9.87,4.92-15,.4-1.73-.5-5.45,3.34-4.9,3.57.51,3.69,3.27,3.17,6.12-3.32,18-3.44,36.33-4.81,54.53-.17,2.27,1.07,5.74-2.73,5.78C531,110.79,532.41,107.08,532.12,105.44Z" style="fill:#fe5d5d"/><path d="M597.76,38a70.53,70.53,0,0,1,9.43.13c1.53.2,4.11.76,3.64,3.21-.39,2.07-2.59,1.63-4.2,1.67-5.47.14-10.94-.1-16.35,1-4,.86-7.69,8.61-5.32,11.93,1.36,1.92,3.72.65,5.59,1,1,.19,2.2.11,2.34,1.35s-1,1.36-1.92,1.85c-2.27,1.3-6.1.07-6.81,3.83a18,18,0,0,0,2.61,13.37c1.62,2.55,4.14,2.87,6.59,2.13,3.3-1,6.88-1.94,9-5,1.34-1.89,2.53-1.72,4.06-.67,2,1.38,1.69,3,.36,4.67a18.3,18.3,0,0,1-16.23,6.87c-6.63-.48-9.6-5.8-11.49-11.61a11.6,11.6,0,0,1-.31-2c-.65-4.92-.39-10.58-8.27-8.95-1.33.28-2.6-1.07-2.62-2.51,0-1.91,1.58-2.54,3.16-2.33,5.91.78,7.38-2,7.72-7.55.62-10.3,2.6-11.77,13-12.35,2-.11,4-.26,6-.39Z" style="fill:#fe5a59"/><path d="M289.68,33.57c7,.6,13,2.72,17.15,8.25,3.69,4.87,3.11,9-1.37,13.22a20.29,20.29,0,0,1-8,4.87c-4.85,1.45-5.84,4.29-4.29,8.92,1.9,5.64,2.81,11.59,5,17.16.69,1.73,2,4.18-.73,5-2.55.72-4.77-.41-5.44-3.57-1.31-6.17-2.76-12.3-4.24-18.43-.51-2.11-.92-4.34-4.24-3.16A3.59,3.59,0,0,1,279,63.59c-.71-2.17,1.63-2.61,3.09-3.07,2.76-.87,3.37-2.37,3-5.25-.77-5.38-.59-10.91-3-16-1.36-2.78.52-4.16,2.52-5C286.16,33.66,288.11,33.77,289.68,33.57Z" style="fill:#fe5e5d"/><path d="M267,42.43c-.21-1.61-.49-3.57-.73-5.54-.12-1-.51-2.25.62-2.6a3.68,3.68,0,0,1,2.72.71,6.56,6.56,0,0,1,2.65,5.16,56.27,56.27,0,0,1-14,41.8c-2.11,2.44-4.92,2.49-7.82,1.54-8-2.65-11-9.11-12.47-16.62-1.79-9-.24-17.88.75-26.79.26-2.37,1.74-2.51,3.53-2.39,2,.13,3.13,1.18,2.86,3.23-.39,3-.9,5.91-1.43,8.86-1,5.79-.54,11.6-.07,17.4a15.29,15.29,0,0,0,2.27,6.54c3.46,5.85,6.65,6.15,10.74.75C263.7,65.14,266.37,54.32,267,42.43Z" style="fill:#fe5e5e"/><path d="M700.23,53.85a97.84,97.84,0,0,0,1.26,18.89c1.08,6.41,2.8,7.58,9.57,7,5-.45,9.88-1.22,14.84-1.69,2-.19,4-.4,5.9.51,1.26.6,2.37,1.22,2.16,2.91s-1.28,2.15-2.76,2.29c-7.77.78-15.52,1.87-23.31,2.28-5.17.28-8.76-2.66-10.55-7.57a45.41,45.41,0,0,1-2.18-12.76c-.42-6.63-.82-13.27-1.13-19.91-.08-1.93-.34-4.59,2.54-4.41,2.25.14,3.79,1.84,3.69,4.52S700.23,51.19,700.23,53.85Z" style="fill:#fe5b5a"/><path d="M91.18,62.5c0,5.15-.28,10.33.11,15.45.22,2.84-.16,5.91,3.39,8.08,2.11,1.28-.28,4.4-1.82,5.83s-3.73.67-5.16-1.06c-1.11-1.35-1.25-3-1.39-4.7a309.67,309.67,0,0,1,.11-47.77,18,18,0,0,0,0-3.44c-.19-1.47-.9-3.19.68-4.07a4.19,4.19,0,0,1,4.26.44,4.08,4.08,0,0,1,1.48,4.44,131.56,131.56,0,0,0-1.91,19.81c-.08,2.33,0,4.66,0,7Z" style="fill:#fe6262"/><path d="M682.24,61.54c.37,5.33-.62,11.82.6,18.27.31,1.6.49,3.6-2,3.79a3.36,3.36,0,0,1-3.74-3.23,44.89,44.89,0,0,1-.62-8.94c.68-9.49.09-18.92-.6-28.37-.13-1.91-1-4.49,2-4.55a4.07,4.07,0,0,1,4.36,4.43C682.22,48.76,682.24,54.58,682.24,61.54Z" style="fill:#fe5a5a"/><path d="M396.7,68.06c-.53,5-2.38,9.41-6.79,12.51s-7.41,2.17-9-2.89,2.64-18.19,6.78-21.55c1.52-1.24,2.65-.87,3.95.2C395.32,59.33,396.33,63.44,396.7,68.06Z" style="fill:#fefdfd"/><path d="M409.31,58.68c.61-9.24,3.53-13.59,9.95-14.52,2.49-.37,5.23-.57,6.73,2,1.35,2.29.05,4.38-1.28,6.41-3.2,4.88-8.26,7.53-12.83,10.71C409.57,64.87,409,63.89,409.31,58.68Z" style="fill:#fefbfb"/><path d="M656.57,64.49c-1.58-.23-3.61-1.16-2-4.37,1.14-2.3-.21-6.76,2.62-6.82,3.16-.08,2.07,4.45,3.23,6.81C661.65,62.68,662,65.19,656.57,64.49Z" style="fill:#feefef"/><path d="M290.36,48.09c.79-2-.44-4-1.58-6-1.29-2.31-.73-3.76,2.21-3.87,3.24-.12,6.2.43,8.81,2.6,4.57,3.8,4.68,7.18.16,11a10,10,0,0,1-1.62,1.13c-2.1,1.19-3.74,3.48-6.51,3C290.71,55.79,290.27,53,290.36,48.09Z" style="fill:#fefbfb"/></svg>