<?xml version="1.0" encoding="utf-8"?>
<!-- Generator: Adobe Illustrator 22.1.0, SVG Export Plug-In . SVG Version: 6.00 Build 0)  -->
<svg version="1.1" id="Layer_0_Image" xmlns="http://www.w3.org/2000/svg" xmlns:xlink="http://www.w3.org/1999/xlink" x="0px"
	 y="0px" viewBox="0 0 314.5 102.6" style="enable-background:new 0 0 314.5 102.6;" xml:space="preserve">
<style type="text/css">
	.st0{fill:#FE6160;}
	.st1{fill:#FEFEFE;}
</style>
<title>submit</title>
<path class="st0" d="M314.1,91.1v1c-1,4.4-4.1,5.8-8.2,5.4c-17.6-1.5-35.3-0.3-52.9-1.1c-31.5-1.3-62.9-0.3-94.4-0.8
	c-17.5-0.3-34.9,1.7-52.3,2.7c-17.9,1-35.8,2.8-53.8,2.8c-5.8-0.1-11.6,0.2-17.3,1h-14c-4.5-2.2-8.2-5.4-12.3-8.3
	c-2.1-1.5-3.4-4.1-2.6-6.6c2.4-7.6,0.6-15.3,0.4-22.8c-0.3-13.1-2.1-26.2-5.2-39c-0.2-1.2-0.6-2.3-1.2-3.3v-3c1-1.5,1.4-3.4,3.2-4.3
	c1.6-0.7,2-2,1.9-3.7c-0.3-4.3,2.6-5.8,6.2-6.3c0.7-0.1,1.3-0.1,2,0c14.9,3.5,29.9,0.9,44.7-0.6c27-2.8,54-4,81.1-3.7
	c1.6,0,3.3,0.5,4.9-0.5h5c1.7,1,3.6,0.5,5.4,0.5c23.1-0.1,46.2,0.2,69.2,2.2c5.3,0.4,10.6,0.7,15.9,1.5c5.9,1,11.6-0.2,17.4-1
	c5.3-0.7,10.6-0.8,15.9-1c6.2-0.3,11.3,2.2,16.4,5.1c3.6,2.1,5.1,5.5,5.4,9.6c1.3,18.3,6.3,36,10.7,53.7c0.8,2.7,2,5.3,3.6,7.6
	C311.3,82.3,313.1,86.6,314.1,91.1z"/>
<path class="st1" d="M314.1,91.1c-2.3-4.2-4.7-8.3-6.9-12.6c-5.9-11.3-7.5-23.7-10.1-35.9c-2-9.2-4.7-18.4-4.1-28.1
	c0.1-2.1-1.5-4.1-3.3-5.3c-6.2-4.1-13.6-6.1-21-5.6c-8.6,0.4-16.9,3-25.5,2.3c-13.1-1-26.2-2.4-39.3-3.6c-2.8-0.2-5.6-0.1-8.5-0.3
	c-14.4-1.1-28.8-1-43.2-1c-1,0-2.4,0.6-3-1c53.7,0,107.3,0,161-0.1c3.4,0,4.1,0.7,4.1,4.1C314,33.1,314.1,62.1,314.1,91.1z"/>
<path class="st1" d="M35.1,102.1c4.2-2.3,9-1.4,13.3-1.7c8.1-0.5,16.2-0.9,24.2-1.5c17-1.3,34.2-1.9,51.2-3.7c6.2-0.7,12.5-1,18.8-1
	c24.3-0.3,48.6-0.1,72.9-0.1c4.2,0,8.4-0.1,12.6,0c12.8,0.3,25.7,1.3,38.4,0.8c8.9-0.3,17.8,1.1,26.7,0.3c3.5-0.3,6.9-0.1,10.3,0.7
	c4,1,8.2,0.8,10.5-3.8c0,3.3,1.3,7.9-0.4,9.6s-6.3,0.4-9.6,0.4L35.1,102.1z"/>
<path class="st1" d="M144.1,0.1c-1.1,1.9-3,0.9-4.5,1c-6.8,0.1-13.6,0-20.4,0.1c-16.6,0.3-33.1,2.2-49.6,3.9c-9,0.9-18,1.4-27,2.1
	c-4.9,0.4-9.8,0.7-14.8,1c-4.4,0.2-8.9-0.4-13.1-1.7c-3-0.9-6.1-0.7-8.1,1.9s1,4.4,2.3,6.7c-3.9-0.3-6.4,1.8-8.8,4.1
	c0-5.3,0.1-10.6-0.1-16C-0.1,0.8,0.4,0,3,0C14,0.2,25,0.1,35.9,0.1H144.1z"/>
<path class="st1" d="M0.1,22.1c4.6,3.3,3.7,8.9,4.7,13.3c2.6,10.9,2.8,22.1,3.3,33.3c0.3,6.4,1.9,12.8-0.8,19.1
	c-0.9,2.1,1,4.8,3,5.7c4.3,1.9,8,4.8,10.8,8.5c-6,0-12-0.1-18,0.1c-2.5,0.1-3.1-0.6-3.1-3.1C0.1,73.4,0.1,47.8,0.1,22.1z"/>
<path class="st1" d="M293.7,83.9c-11-1.4-20.6-0.7-30.2-0.8c-28.5-0.1-57.1-0.1-85.6,0c-15.9,0.1-31.9,0.2-47.8,1.1
	c-18.4,0.9-36.8,2.7-55.2,4c-14.5,1-29,2.1-43.5,2.9c-7.5,0.4-7.9,0-9.1-7.2c-0.7-4.2-1.2-8.5-1.4-12.8c-0.5-13.1-1.4-26.2-3.8-39.2
	c-0.9-4.6-1.1-9.4-2.7-13.9c-0.9-2.6,0.9-2.2,2-1.9c11.8,4.2,23.8,0.5,35.6,0.2c10.2-0.3,20.3-1.1,30.4-2.5
	c18.7-2.4,37.4-1.9,56.1-1.9c13,0,26.1-0.8,39,0.2c12,1,24.1-0.2,36.1,1.8c14.9,2.4,30.1,2,45.2,3.8c4.8,0.6,9.8-0.5,14.7-1.1
	c4.4-0.6,5.8,0.7,6.6,5.1c3.3,18,6.3,36.2,12.1,53.7c0.7,2,1,4.2,2.1,5.9C296.1,84.6,293.7,83.9,293.7,83.9z"/>
<path d="M39.8,36.3c8.7,5.5,18.7,7.8,25.9,16.1c0.5-4.2,0.9-7.8-0.2-11.4c-0.6-1.9-1.3-4.1,0.8-5.4c1.7-1.1,3.7-0.7,5.6,0.4
	c3.4,2,5.4,4.5,5.3,8.7c-0.1,4.3,0,8.6,0,13.3c5.1-3.1,7.9-7.8,10.6-12.2c1.7-2.7,1-6.2-1.5-8.1c-1.3-1-1.3-2.4-1-3.6
	c0.4-1.6,1.9-0.9,2.9-0.9c6.3-0.3,12.1,5.8,10.9,12.1c-1.8,8.9-7,15.8-14.4,21c-5.4,3.9-9.7,0.8-14.1-1.8c-1.4,5.2-5.6,7.8-10.2,10
	c-7.4,3.5-14.8,5.8-23,2.7c-3.1-1-5.7-3.4-6.9-6.4c-0.6-1.3-0.9-3.2,0.2-4.2s2.8-0.7,4,0.5c0.3,0.3,1.1,0.2,1.4,0.5
	c2.4,2.9,5.5,4.3,9.2,3.5c6-1.3,11.6-3.8,15.2-8.8c2.7-3.9-0.9-6.8-3.7-8.8c-4.4-3.2-9.4-5.2-14.5-7.2c-4.4-1.7-8.4-4.4-11.5-8
	c-2.5-2.9-2.2-5.8,0.8-7.5c9.1-5.3,19.3-7.7,29.4-10.3c2.5-0.4,5,0.6,6.5,2.5c1,1.2,2.3,2.7,1.7,4.4c-0.7,2-2.6,0.8-3.9,0.9
	C56.2,29.3,48.1,32.5,39.8,36.3z"/>
<path d="M122.8,25.1c3.3-0.4,6.7,0.3,9.6,2c5.9,3.2,7.1,8.1,2.9,13.3c-1.4,1.7-2.9,3.2-4.6,4.5c-0.8,0.6-2.5,0.6-2,2.1
	c0.4,1.2,1.8,1.1,3,1.1c5.7,0,10.7,2.6,15.3,5.5c6.6,4.2,5.4,11.8-2.5,16.4c-7.7,4.4-15.8,8.4-24.7,8.8c-5.9,0.4-11.7-1.9-15.7-6.3
	c-0.8-0.9-1.1-2-0.9-3.2c1.1-9.8-1.4-19.4-1-29.1c0.1-3.5-3.2-7.8,0-10.2c4.4-3.4,10.4-3.8,15.9-4.9C119.6,25,121.2,25,122.8,25.1z"
	/>
<path d="M186.4,47.5c-1.7,4-3.2,7-4.1,10.1c-0.7,2.4-1.4,4.2-4.3,4.5c-2.8,0.3-5.5-1-7-3.3c-1.3-1.8-2.6-3.8-2.3-6.3
	c-1,4.4-2.7,8.5-2.7,12.9c0,1.8-1.3,3.2-3,3.5c-2.6,0.5-5.3-0.4-7-2.4c-1.9-2.1-2.1-4.7-2-7.3c0.4-7.6,0-15.3,3-22.6
	c0.2-0.6,0.4-1.6,0.8-1.7c3.9-1.2,6.9-4.8,10.7-5.6c5.6-1.3,7.6,0.9,10.1,8.7c0.8-2.1,1.8-4.2,3-6.1c1.9-3,3.6-5.4,7.5-4.3
	c4.3,1.2,5.8,4.3,6.1,8.6c0.4,6.1,0.8,12.3,2.9,18.1c0.5,1.5,1.2,3,2.1,4.3c1.8,2.5,3.3,5.2,0.8,7.9c-1.5,1.7-7.4-0.4-8.8-3.3
	C189.7,58.2,187.8,52.9,186.4,47.5z"/>
<path d="M258.2,74.1c-3.5-0.1-5.8-3.6-7-7.2c-2.7-7.4-4.8-15-5.1-23c-0.1-3.7-1.5-3-3.9-2c-1.6,0.7-2.5,3.1-5.2,1.8s-6-2.1-6-6
	c0-4.1,4-4.4,6.3-5.4c8.4-3.5,17.9-3.4,26.4-7c2.9-1.2,5.6,0.8,6.9,4s-1.3,3.7-3.1,5c-2.4,1.7-5.1,2-7.7,2.6
	c-3.3,0.8-4.4,2.5-3.7,5.5c2.2,8.8,0.8,18.4,6.2,26.6C264.4,72.1,262.9,74.1,258.2,74.1z"/>
<path d="M214.2,42.8c-0.4-3,0.2-6-0.5-9c-0.5-1.9-0.4-4.8,2-5.5c2.3-0.6,4.8,0.1,6.4,1.8c2,2.2,2.8,5.2,2.3,8.2
	c-1,8.2-0.3,16.4,2.1,24.3c0.7,2.4,1.9,5-1.3,6.3c-3.1,1.2-6.6-0.3-7.8-3.4c-0.1-0.2-0.2-0.5-0.2-0.7
	C215.3,57.6,213.4,50.3,214.2,42.8z"/>
<path class="st1" d="M113.1,60.9c-0.7-2.6,0.4-3.5,3.6-4.2c7.3-1.8,14.3-1.2,21.3,0.8c2,0.5,3,1.7,0.8,3.6
	c-5.3,4.4-11.8,7.2-18.7,7.9C115.9,69.5,113.1,65.9,113.1,60.9z"/>
<path class="st1" d="M112.6,44.9c-1.3-8.5,3.2-12.4,13.3-11.5C124,37.8,120.1,41.2,112.6,44.9z"/>
</svg>
