<svg id="Layer_0_Image" data-name="Layer 0 Image" xmlns="http://www.w3.org/2000/svg" viewBox="0 0 314.55 102.57"><title>submit</title><path d="M321,93v1c-1,4.39-4.12,5.77-8.23,5.43-17.61-1.46-35.29-.33-52.88-1.08-31.48-1.34-62.95-.32-94.41-.82-17.51-.28-34.89,1.7-52.33,2.72-17.93,1-35.83,2.76-53.82,2.79A121.08,121.08,0,0,0,42,104H28c-4.45-2.22-8.25-5.43-12.27-8.29-2.11-1.5-3.44-4.1-2.63-6.62,2.44-7.62.62-15.26.35-22.83a183.7,183.7,0,0,0-5.22-39A8,8,0,0,0,7,24V21c1-1.5,1.35-3.44,3.24-4.28,1.58-.7,2-2,1.88-3.66-.26-4.34,2.56-5.75,6.21-6.26a5.54,5.54,0,0,1,2,0c14.94,3.5,29.87.87,44.68-.59a723.56,723.56,0,0,1,81.14-3.74c1.61,0,3.33.49,4.86-.49h5c1.7,1,3.58.49,5.35.49,23.1-.08,46.18.23,69.2,2.21,5.29.45,10.61.68,15.87,1.54,5.86,1,11.6-.22,17.36-1,5.28-.73,10.59-.78,15.9-1,6.18-.3,11.34,2.16,16.38,5.15,3.61,2.13,5.06,5.45,5.35,9.56,1.28,18.35,6.27,36,10.74,53.67a26.87,26.87,0,0,0,3.65,7.64A40.56,40.56,0,0,1,321,93Z" transform="translate(-6.93 -1.9)" style="fill:#f34336"/><path d="M321,93c-2.3-4.19-4.67-8.35-6.87-12.59-5.86-11.26-7.49-23.73-10.09-35.9-2-9.25-4.66-18.4-4.15-28.06.11-2.14-1.46-4.09-3.29-5.27a33.91,33.91,0,0,0-21-5.59c-8.56.45-16.93,3-25.5,2.34-13.13-1-26.23-2.43-39.34-3.62-2.81-.25-5.65-.12-8.47-.33-14.4-1.06-28.82-1-43.25-1-1,0-2.4.56-3-1q80.51,0,161-.1c3.42,0,4.12.67,4.1,4.1C320.92,35,321,64,321,93Z" transform="translate(-6.93 -1.9)" style="fill:#fefefe"/><path d="M42,104c4.18-2.31,9-1.4,13.31-1.65,8.06-.47,16.19-.88,24.24-1.49,17-1.31,34.15-1.86,51.17-3.7,6.19-.67,12.52-1,18.77-1,24.31-.27,48.62-.11,72.94-.11,4.2,0,8.41-.08,12.61,0,12.81.29,25.66,1.26,38.44.76,8.94-.35,17.78,1.13,26.69.31a31.69,31.69,0,0,1,10.31.74c4,1,8.22.75,10.52-3.82,0,3.33,1.3,7.93-.37,9.62s-6.27.38-9.6.38Z" transform="translate(-6.93 -1.9)" style="fill:#fefefe"/><path d="M151,2c-1.15,1.88-3,.93-4.5,1-6.81.11-13.63-.05-20.44.07-16.6.3-33.06,2.22-49.55,3.91-9,.92-18,1.41-27,2.07q-7.38.54-14.77,1A37.75,37.75,0,0,1,21.64,8.33c-3-.89-6.15-.69-8.13,1.89s1,4.38,2.33,6.68C11.93,16.56,9.43,18.71,7,21c0-5.32.12-10.64-.06-15.95-.07-2.36.35-3.17,3-3.13,11,.19,21.94.08,32.9.08Z" transform="translate(-6.93 -1.9)" style="fill:#fefefe"/><path d="M7,24c4.64,3.31,3.66,8.86,4.74,13.33C14.37,48.19,14.49,59.45,15,70.61c.27,6.37,1.85,12.75-.82,19.13-.89,2.14.95,4.79,3,5.73A28.39,28.39,0,0,1,28,104c-6,0-12-.14-18,.07-2.51.09-3.08-.57-3.07-3.07C7,75.33,7,49.67,7,24Z" transform="translate(-6.93 -1.9)" style="fill:#fefefe"/><path d="M300.6,85.79c-11-1.44-20.59-.71-30.18-.75q-42.8-.17-85.58,0c-15.92.09-31.87.25-47.77,1.06-18.4.94-36.76,2.66-55.15,4-14.48,1-29,2.08-43.46,2.88-7.47.41-7.88,0-9.1-7.19A96.9,96.9,0,0,1,28,73c-.49-13.13-1.39-26.19-3.83-39.16-.87-4.63-1.14-9.4-2.74-13.87-.92-2.58.92-2.21,2-1.85,11.85,4.25,23.77.48,35.63.22a286.34,286.34,0,0,0,30.39-2.46c18.65-2.43,37.36-1.86,56.07-1.92,13,0,26.09-.82,39,.24,12,1,24.14-.16,36.1,1.76,14.95,2.39,30.15,2,45.17,3.83,4.79.59,9.84-.47,14.72-1.1,4.42-.56,5.77.74,6.57,5.1,3.29,18.05,6.28,36.18,12.07,53.67.66,2,1,4.16,2.06,5.94C303,86.53,300.63,85.78,300.6,85.79Z" transform="translate(-6.93 -1.9)" style="fill:#fefefe"/><path d="M46.72,38.18C55.44,43.65,65.44,46,72.58,54.24c.53-4.16.89-7.75-.15-11.38-.55-1.91-1.3-4.07.76-5.37,1.72-1.09,3.69-.67,5.55.42,3.36,2,5.41,4.54,5.29,8.66-.13,4.29,0,8.58,0,13.29,5.07-3.11,7.89-7.76,10.55-12.21a6.13,6.13,0,0,0-1.49-8.1c-1.32-1-1.26-2.36-1-3.61C92.48,34.32,94,35.07,95,35c6.35-.27,12.13,5.76,10.89,12.06-1.76,8.93-7,15.75-14.4,21-5.43,3.87-9.7.81-14.1-1.78-1.44,5.24-5.6,7.8-10.17,10-7.37,3.52-14.85,5.76-23,2.7a11.49,11.49,0,0,1-6.94-6.4c-.56-1.32-.91-3.24.19-4.23s2.75-.68,4,.48c.33.3,1.1.18,1.36.51,2.39,2.94,5.51,4.35,9.16,3.54,6-1.33,11.65-3.76,15.18-8.85,2.72-3.94-.9-6.79-3.72-8.84C59.06,52,54,50,48.94,48a29.46,29.46,0,0,1-11.53-8c-2.46-2.89-2.22-5.77.83-7.54,9.11-5.27,19.3-7.74,29.38-10.3a6.85,6.85,0,0,1,6.51,2.54c1,1.23,2.31,2.66,1.74,4.35-.65,2-2.55.75-3.87.94C63.17,31.2,55.05,34.43,46.72,38.18Z" transform="translate(-6.93 -1.9)"/><path d="M129.7,27a15.28,15.28,0,0,1,9.59,2c5.93,3.18,7.09,8.06,2.85,13.26a29.93,29.93,0,0,1-4.63,4.51c-.82.64-2.49.63-2,2.12.41,1.24,1.83,1.11,3,1.11,5.72,0,10.69,2.59,15.26,5.48,6.65,4.2,5.45,11.82-2.51,16.4-7.68,4.42-15.82,8.37-24.69,8.85a19.43,19.43,0,0,1-15.68-6.29,3.65,3.65,0,0,1-.89-3.18c1.06-9.77-1.36-19.41-1-29.14.12-3.48-3.19-7.78,0-10.23,4.44-3.39,10.45-3.76,15.93-4.86A28,28,0,0,1,129.7,27Z" transform="translate(-6.93 -1.9)"/><path d="M193.36,49.38c-1.66,4-3.19,7-4.12,10.14-.71,2.41-1.41,4.24-4.28,4.51A7.25,7.25,0,0,1,178,60.74c-1.3-1.8-2.58-3.75-2.33-6.31C174.64,58.8,173,62.9,173,67.35A3.62,3.62,0,0,1,170,70.89,7.18,7.18,0,0,1,163,68.44c-1.94-2.11-2.12-4.66-2-7.33.44-7.61,0-15.33,3-22.6.24-.58.38-1.56.77-1.68,3.93-1.25,6.89-4.76,10.66-5.62,5.64-1.27,7.56.87,10.07,8.67a29.85,29.85,0,0,1,3-6.08c1.85-2.95,3.63-5.38,7.49-4.27,4.27,1.22,5.8,4.28,6.12,8.63.43,6.1.77,12.26,2.86,18.14a16.47,16.47,0,0,0,2.11,4.29c1.78,2.47,3.32,5.18.8,7.9-1.53,1.66-7.37-.45-8.78-3.32A83.69,83.69,0,0,1,193.36,49.38Z" transform="translate(-6.93 -1.9)"/><path d="M265.18,76c-3.49-.13-5.75-3.6-7-7.16-2.69-7.4-4.78-15-5.07-23-.13-3.72-1.48-3-3.89-2-1.6.72-2.54,3.12-5.16,1.76s-6-2.09-6-6c0-4.14,4-4.42,6.34-5.41,8.42-3.52,17.88-3.38,26.41-7,2.89-1.22,5.64.82,6.85,4s-1.26,3.7-3.15,5c-2.38,1.7-5.13,2-7.7,2.63-3.31.79-4.44,2.55-3.72,5.46,2.2,8.81.78,18.42,6.21,26.57C271.3,74,269.82,76,265.18,76Z" transform="translate(-6.93 -1.9)"/><path d="M221.08,44.75c-.45-3,.25-6-.52-9-.5-1.94-.42-4.8,2-5.48a6.35,6.35,0,0,1,6.38,1.83,9.77,9.77,0,0,1,2.31,8.17,59.25,59.25,0,0,0,2.06,24.3c.71,2.44,1.88,5-1.27,6.3a6,6,0,0,1-8-4.17C222.2,59.51,220.31,52.24,221.08,44.75Z" transform="translate(-6.93 -1.9)"/><path d="M120,62.8c-.65-2.57.43-3.46,3.57-4.24,7.28-1.79,14.26-1.18,21.25.8,2,.55,3,1.73.77,3.61a34.6,34.6,0,0,1-18.65,7.94C122.88,71.37,120,67.77,120,62.8Z" transform="translate(-6.93 -1.9)" style="fill:#fefefe"/><path d="M119.49,46.8c-1.31-8.49,3.18-12.38,13.27-11.5C130.9,39.68,127,43.09,119.49,46.8Z" transform="translate(-6.93 -1.9)" style="fill:#fefefe"/></svg>